<svg width="25" height="25" viewBox="0 0 25 25" fill="none" xmlns="http://www.w3.org/2000/svg">
<path d="M12.25 0.390625C5.425 0.390625 0 5.81562 0 12.6406C0 19.4656 5.425 24.8906 12.25 24.8906C19.075 24.8906 24.5 19.4656 24.5 12.6406C24.5 5.81562 19.075 0.390625 12.25 0.390625ZM12.25 23.1406C6.475 23.1406 1.75 18.4156 1.75 12.6406C1.75 6.86562 6.475 2.14062 12.25 2.14062C18.025 2.14062 22.75 6.86562 22.75 12.6406C22.75 18.4156 18.025 23.1406 12.25 23.1406Z" fill="#6E6F72" fill-opacity="0.94"/>
<path d="M17.7719 18.1625C17.3784 18.556 16.7404 18.556 16.3469 18.1625L12.25 14.0656L8.15313 18.1625C7.75962 18.556 7.12163 18.556 6.72812 18.1625C6.33462 17.769 6.33462 17.131 6.72813 16.7375L10.825 12.6406L6.73342 8.54905C6.33699 8.15262 6.33699 7.50988 6.73342 7.11345C7.12569 6.72119 7.76021 6.71647 8.15827 7.10286L10 8.89062L12.25 11.2156L16.3469 7.11875C16.7404 6.72525 17.3784 6.72525 17.7719 7.11875C18.1654 7.51225 18.1654 8.15025 17.7719 8.54375L13.675 12.6406L17.7719 16.7375C18.1654 17.131 18.1654 17.769 17.7719 18.1625Z" fill="#6E6F72" fill-opacity="0.94"/>
</svg>
