<svg width="53" height="41" viewBox="0 0 53 41" fill="none" xmlns="http://www.w3.org/2000/svg">
<path d="M34.5003 18.5801C33.8807 18.5801 33.3783 18.0777 33.3783 17.458V13.3457H29.2051C28.601 13.3457 28.1113 12.856 28.1113 12.252V12.252C28.1113 11.6479 28.601 11.1582 29.2051 11.1582H33.3783V7.08493C33.3783 6.46524 33.8807 5.96289 34.5003 5.96289V5.96289C35.12 5.96289 35.6224 6.46524 35.6224 7.08493V11.1582H39.7956C40.3997 11.1582 40.8894 11.6479 40.8894 12.252V12.252C40.8894 12.856 40.3997 13.3457 39.7956 13.3457H35.6224V17.458C35.6224 18.0777 35.12 18.5801 34.5003 18.5801V18.5801Z" fill="#6E6F72" fill-opacity="0.94"/>
<path d="M20.4119 23.3321C23.7075 23.3321 26.4039 20.6879 26.4039 17.4561C26.4039 14.2243 23.7075 11.5801 20.4119 11.5801C17.1163 11.5801 14.4199 14.2243 14.4199 17.4561C14.4199 20.6879 17.1163 23.3321 20.4119 23.3321ZM20.4119 12.6484C23.1083 12.6484 25.3144 14.8119 25.3144 17.4561C25.3144 20.1003 23.1083 22.2637 20.4119 22.2637C17.7155 22.2637 15.5094 20.1003 15.5094 17.4561C15.5094 14.8119 17.7155 12.6484 20.4119 12.6484Z" fill="#6E6F72" fill-opacity="0.94"/>
<path d="M20.4119 23.4821C23.7876 23.4821 26.5539 20.7735 26.5539 17.4561C26.5539 14.1387 23.7876 11.4301 20.4119 11.4301C17.0362 11.4301 14.2699 14.1387 14.2699 17.4561C14.2699 20.7735 17.0362 23.4821 20.4119 23.4821ZM20.4119 12.7984C23.0282 12.7984 25.1644 14.8975 25.1644 17.4561C25.1644 20.0147 23.0282 22.1137 20.4119 22.1137C17.7956 22.1137 15.6594 20.0147 15.6594 17.4561C15.6594 14.8975 17.7956 12.7984 20.4119 12.7984Z" stroke="#6E6F72" stroke-opacity="0.94" stroke-width="0.3"/>
<path d="M9.54473 32.4196C9.84432 32.4196 10.0895 32.1792 10.0895 31.8854C10.0895 28.7871 12.3773 26.1429 15.455 25.6355C16.8985 26.6237 18.6144 27.1312 20.3848 27.1312C22.1551 27.1312 23.871 26.597 25.3145 25.6355C28.3922 26.1429 30.6801 28.8138 30.6801 31.8854C30.6801 32.1792 30.9252 32.4196 31.2248 32.4196C31.5244 32.4196 31.7695 32.1792 31.7695 31.8854C31.7695 28.1995 28.9642 25.0479 25.2328 24.5404C25.0966 24.5137 24.9605 24.5671 24.8243 24.6472C23.5986 25.5553 22.0462 26.0628 20.412 26.0628C18.7778 26.0628 17.2254 25.5553 15.9453 24.6205C15.8363 24.5404 15.7001 24.5137 15.5367 24.5137C11.8053 25.0211 9 28.1728 9 31.8587C9 32.1792 9.24513 32.4196 9.54473 32.4196Z" fill="#6E6F72" fill-opacity="0.94"/>
<path d="M24.7482 24.5179L24.7414 24.522L24.735 24.5267C23.5363 25.4148 22.0155 25.9128 20.412 25.9128C18.8093 25.9128 17.2879 25.4152 16.0339 24.4995C15.8878 24.3921 15.714 24.3637 15.5367 24.3637H15.5266L15.5165 24.365C11.7133 24.8823 8.85 28.0953 8.85 31.8587C8.85 32.26 9.16026 32.5696 9.54473 32.5696C9.92439 32.5696 10.2395 32.2648 10.2395 31.8854C10.2395 28.8821 12.4433 26.313 15.4206 25.7934C16.8798 26.7771 18.6062 27.2812 20.3848 27.2812C22.1649 27.2812 23.8906 26.7501 25.3479 25.7933C28.3253 26.3127 30.5301 28.9079 30.5301 31.8854C30.5301 32.2648 30.8451 32.5696 31.2248 32.5696C31.6045 32.5696 31.9195 32.2648 31.9195 31.8854C31.9195 28.1233 29.0583 24.9112 25.257 24.3923C25.0659 24.3566 24.89 24.4345 24.7482 24.5179Z" stroke="#6E6F72" stroke-opacity="0.94" stroke-width="0.3"/>
</svg>
