<svg width="28" height="28" viewBox="0 0 28 28" fill="none" xmlns="http://www.w3.org/2000/svg">
<path d="M22.2803 8.22405C21.9319 7.87445 21.518 7.59706 21.0621 7.40779C20.6063 7.21852 20.1176 7.12109 19.6241 7.12109C19.1305 7.12109 18.6418 7.21852 18.186 7.40779C17.7302 7.59706 17.3162 7.87445 16.9678 8.22405L17.8553 9.11155C18.088 8.87886 18.3642 8.69429 18.6683 8.56836C18.9723 8.44243 19.2981 8.37762 19.6272 8.37762C19.9563 8.37762 20.2821 8.44243 20.5861 8.56836C20.8901 8.69429 21.1664 8.87886 21.3991 9.11155C21.6318 9.34424 21.8163 9.62047 21.9423 9.92449C22.0682 10.2285 22.133 10.5544 22.133 10.8834C22.133 11.2125 22.0682 11.5383 21.9423 11.8424C21.8163 12.1464 21.6318 12.4226 21.3991 12.6553L16.3991 17.6553C15.93 18.1252 15.2934 18.3896 14.6294 18.3901C13.9654 18.3907 13.3284 18.1275 12.8584 17.6584C12.3885 17.1893 12.1242 16.5528 12.1236 15.8888C12.123 15.2248 12.3862 14.5877 12.8553 14.1178L13.7366 13.2303L12.8553 12.3428L11.9678 13.2303C11.6182 13.5787 11.3408 13.9927 11.1516 14.4485C10.9623 14.9043 10.8649 15.393 10.8649 15.8866C10.8649 16.3801 10.9623 16.8688 11.1516 17.3246C11.3408 17.7804 11.6182 18.1944 11.9678 18.5428C12.675 19.2409 13.6304 19.6298 14.6241 19.624C15.1195 19.6261 15.6105 19.5299 16.0685 19.3411C16.5266 19.1523 16.9427 18.8746 17.2928 18.5241L22.2928 13.524C22.9934 12.8193 23.3856 11.8652 23.3833 10.8715C23.3809 9.87771 22.9842 8.92552 22.2803 8.22405Z" fill="#212529"/>
<path d="M6.61782 19.5115C6.38444 19.2793 6.19925 19.0031 6.07288 18.6991C5.94652 18.395 5.88146 18.069 5.88146 17.7397C5.88146 17.4104 5.94652 17.0844 6.07288 16.7803C6.19925 16.4762 6.38444 16.2001 6.61782 15.9678L11.6178 10.9678C11.8501 10.7344 12.1262 10.5492 12.4303 10.4229C12.7344 10.2965 13.0604 10.2314 13.3897 10.2314C13.719 10.2314 14.045 10.2965 14.3491 10.4229C14.6532 10.5492 14.9293 10.7344 15.1616 10.9678C15.3935 11.2019 15.576 11.4802 15.6984 11.7862C15.8208 12.0922 15.8805 12.4196 15.8741 12.7491C15.876 13.0796 15.8123 13.4072 15.6868 13.7129C15.5613 14.0186 15.3764 14.2965 15.1428 14.5303L13.8178 15.874L14.7053 16.7615L16.0303 15.4365C16.7356 14.7312 17.1319 13.7746 17.1319 12.7772C17.1319 11.7797 16.7356 10.8231 16.0303 10.1178C15.325 9.41249 14.3684 9.01625 13.3709 9.01625C12.3735 9.01625 11.4169 9.41249 10.7116 10.1178L5.71157 15.1178C5.36103 15.4663 5.08284 15.8807 4.89302 16.3371C4.70319 16.7935 4.60547 17.2829 4.60547 17.7772C4.60547 18.2715 4.70319 18.7609 4.89302 19.2173C5.08284 19.6737 5.36103 20.088 5.71157 20.4365C6.42333 21.1293 7.38088 21.5115 8.37407 21.499C9.376 21.5 10.3376 21.1046 11.0491 20.399L10.1616 19.5115C9.92927 19.7449 9.65316 19.9301 9.34909 20.0565C9.04501 20.1829 8.71897 20.2479 8.38969 20.2479C8.06041 20.2479 7.73437 20.1829 7.4303 20.0565C7.12622 19.9301 6.85011 19.7449 6.61782 19.5115Z" fill="#212529"/>
</svg>
