<svg width="24" height="25" viewBox="0 0 24 25" fill="none" xmlns="http://www.w3.org/2000/svg">
<rect x="1" y="1" width="22" height="23" stroke="#6E6F72" stroke-opacity="0.94" stroke-width="2"/>
<g clip-path="url(#clip0_632_16433)">
<path fill-rule="evenodd" clip-rule="evenodd" d="M20.6045 6.40048C20.8577 6.65669 21 7.00415 21 7.36643C21 7.72872 20.8577 8.07617 20.6045 8.33239L10.4803 18.573C10.3465 18.7084 10.1877 18.8158 10.0128 18.889C9.83802 18.9623 9.65064 19 9.46141 19C9.27217 19 9.08479 18.9623 8.90997 18.889C8.73514 18.8158 8.5763 18.7084 8.4425 18.573L3.41236 13.486C3.28335 13.3599 3.18045 13.2092 3.10966 13.0425C3.03887 12.8758 3.00161 12.6965 3.00005 12.5151C2.99849 12.3337 3.03267 12.1538 3.10058 11.9859C3.1685 11.8179 3.2688 11.6654 3.39562 11.5371C3.52245 11.4088 3.67326 11.3074 3.83926 11.2387C4.00526 11.17 4.18312 11.1354 4.36247 11.137C4.54182 11.1386 4.71907 11.1763 4.88386 11.2479C5.04866 11.3195 5.1977 11.4236 5.3223 11.554L9.46096 15.7403L18.6937 6.40048C18.8191 6.27352 18.9681 6.1728 19.132 6.10408C19.2959 6.03537 19.4716 6 19.6491 6C19.8266 6 20.0023 6.03537 20.1662 6.10408C20.3301 6.1728 20.4791 6.27352 20.6045 6.40048Z" fill="black"/>
</g>
<defs>
<clipPath id="clip0_632_16433">
<rect width="24" height="24" fill="white"/>
</clipPath>
</defs>
</svg>
