<svg width="254" height="86" viewBox="0 0 254 86" fill="none" xmlns="http://www.w3.org/2000/svg">
<g filter="url(#filter0_d_415_6675)">
<rect x="8" y="4" width="238" height="70" rx="4" fill="white" shape-rendering="crispEdges"/>
<rect x="17" y="13" width="24" height="24" rx="4" fill="#212529"/>
<g style="mix-blend-mode:multiply" opacity="0.7">
<rect x="17.5" y="13.5" width="23" height="23" rx="3.5" stroke="#212529"/>
</g>
<path fill-rule="evenodd" clip-rule="evenodd" d="M28.4706 25.2385C27.7251 25.9573 26.5471 25.9665 25.7905 25.2593L25.0456 24.563C24.6869 24.2278 24.1262 24.2403 23.783 24.5913C23.433 24.9491 23.4406 25.5232 23.8 25.8716L25.1858 27.2148C26.2936 28.2884 28.0578 28.2747 29.1487 27.184L33.4257 22.9076C33.7503 22.5831 33.7713 22.0636 33.4739 21.714C33.1447 21.3271 32.5573 21.2981 32.1916 21.6507L28.4706 25.2385Z" fill="white"/>
<rect x="17" y="41" width="24" height="24" rx="4" fill="#CED4DA"/>
<g style="mix-blend-mode:multiply" opacity="0.7">
<rect x="17.5" y="41.5" width="23" height="23" rx="3.5" stroke="#CED4DA"/>
</g>
<rect x="45" y="13" width="24" height="24" rx="4" fill="#845EF7"/>
<g style="mix-blend-mode:multiply" opacity="0.7">
<rect x="45.5" y="13.5" width="23" height="23" rx="3.5" stroke="#845EF7"/>
</g>
<rect x="45" y="41" width="24" height="24" rx="4" fill="#5F3DC4"/>
<g style="mix-blend-mode:multiply" opacity="0.7">
<rect x="45.5" y="41.5" width="23" height="23" rx="3.5" stroke="#5F3DC4"/>
</g>
<rect x="73" y="13" width="24" height="24" rx="4" fill="#339AF0"/>
<g style="mix-blend-mode:multiply" opacity="0.5">
<rect x="73.5" y="13.5" width="23" height="23" rx="3.5" stroke="#339AF0"/>
</g>
<rect x="73" y="41" width="24" height="24" rx="4" fill="#1864AB"/>
<g style="mix-blend-mode:multiply" opacity="0.7">
<rect x="73.5" y="41.5" width="23" height="23" rx="3.5" stroke="#1864AB"/>
</g>
<rect x="101" y="13" width="24" height="24" rx="4" fill="#22B8CF"/>
<g style="mix-blend-mode:multiply" opacity="0.7">
<rect x="101.5" y="13.5" width="23" height="23" rx="3.5" stroke="#22B8CF"/>
</g>
<rect x="101" y="41" width="24" height="24" rx="4" fill="#0B7285"/>
<g style="mix-blend-mode:multiply" opacity="0.7">
<rect x="101.5" y="41.5" width="23" height="23" rx="3.5" stroke="#0B7285"/>
</g>
<rect x="129" y="13" width="24" height="24" rx="4" fill="#51CF66"/>
<g style="mix-blend-mode:multiply" opacity="0.7">
<rect x="129.5" y="13.5" width="23" height="23" rx="3.5" stroke="#51CF66"/>
</g>
<rect x="129" y="41" width="24" height="24" rx="4" fill="#2B8A3E"/>
<g style="mix-blend-mode:multiply" opacity="0.7">
<rect x="129.5" y="41.5" width="23" height="23" rx="3.5" stroke="#2B8A3E"/>
</g>
<rect x="157" y="13" width="24" height="24" rx="4" fill="#FCC419"/>
<g style="mix-blend-mode:multiply" opacity="0.7">
<rect x="157.5" y="13.5" width="23" height="23" rx="3.5" stroke="#FCC419"/>
</g>
<rect x="157" y="41" width="24" height="24" rx="4" fill="#E67700"/>
<g style="mix-blend-mode:multiply" opacity="0.7">
<rect x="157.5" y="41.5" width="23" height="23" rx="3.5" stroke="#E67700"/>
</g>
<rect x="185" y="13" width="24" height="24" rx="4" fill="#FF6B6B"/>
<g style="mix-blend-mode:multiply" opacity="0.7">
<rect x="185.5" y="13.5" width="23" height="23" rx="3.5" stroke="#FF6B6B"/>
</g>
<rect x="185" y="41" width="24" height="24" rx="4" fill="#C92A2A"/>
<g style="mix-blend-mode:multiply" opacity="0.7">
<rect x="185.5" y="41.5" width="23" height="23" rx="3.5" stroke="#C92A2A"/>
</g>
<rect x="213" y="13" width="24" height="24" rx="4" fill="#F06595"/>
<g style="mix-blend-mode:multiply" opacity="0.7">
<rect x="213.5" y="13.5" width="23" height="23" rx="3.5" stroke="#F06595"/>
</g>
<rect x="213" y="41" width="24" height="24" rx="4" fill="#C2255C"/>
<g style="mix-blend-mode:multiply" opacity="0.7">
<rect x="213.5" y="41.5" width="23" height="23" rx="3.5" stroke="#C2255C"/>
</g>
</g>
<defs>
<filter id="filter0_d_415_6675" x="0" y="0" width="254" height="86" filterUnits="userSpaceOnUse" color-interpolation-filters="sRGB">
<feFlood flood-opacity="0" result="BackgroundImageFix"/>
<feColorMatrix in="SourceAlpha" type="matrix" values="0 0 0 0 0 0 0 0 0 0 0 0 0 0 0 0 0 0 127 0" result="hardAlpha"/>
<feOffset dy="4"/>
<feGaussianBlur stdDeviation="4"/>
<feComposite in2="hardAlpha" operator="out"/>
<feColorMatrix type="matrix" values="0 0 0 0 0 0 0 0 0 0 0 0 0 0 0 0 0 0 0.12 0"/>
<feBlend mode="normal" in2="BackgroundImageFix" result="effect1_dropShadow_415_6675"/>
<feBlend mode="normal" in="SourceGraphic" in2="effect1_dropShadow_415_6675" result="shape"/>
</filter>
</defs>
</svg>
