<svg width="114" height="78" viewBox="0 0 114 78" fill="none" xmlns="http://www.w3.org/2000/svg">
<rect width="114" height="78" fill="#E3E7E9"/>
<path opacity="0.5" d="M75 37H35" stroke="#190207" stroke-width="1.5" stroke-linecap="round"/>
<path d="M35 28.9C35 27.134 35 26.252 35.14 25.516C35.4384 23.9357 36.2063 22.482 37.3433 21.3446C38.4803 20.2072 39.9338 19.4389 41.514 19.14C42.252 19 43.136 19 44.9 19C45.672 19 46.06 19 46.432 19.034C48.0341 19.1845 49.5536 19.8146 50.792 20.842C51.08 21.08 51.352 21.352 51.9 21.9L53 23C54.632 24.632 55.448 25.448 56.424 25.99C56.9604 26.289 57.5295 26.5252 58.12 26.694C59.196 27 60.35 27 62.656 27H63.404C68.668 27 71.302 27 73.012 28.54C73.17 28.68 73.32 28.83 73.46 28.988C75 30.698 75 33.332 75 38.596V43C75 50.542 75 54.314 72.656 56.656C70.314 59 66.542 59 59 59H51C43.458 59 39.686 59 37.344 56.656C35 54.314 35 50.542 35 43V28.9Z" stroke="#190207" stroke-width="1.5"/>
</svg>
