<svg width="114" height="79" viewBox="0 0 114 79" fill="none" xmlns="http://www.w3.org/2000/svg">
<rect y="0.996094" width="114" height="78" fill="#E3E7E9"/>
<path opacity="0.5" d="M75 37.9961H35" stroke="#190207" stroke-width="1.5" stroke-linecap="round"/>
<path d="M35 29.8961C35 28.1301 35 27.2481 35.14 26.5121C35.4384 24.9318 36.2063 23.4781 37.3433 22.3407C38.4803 21.2033 39.9338 20.435 41.514 20.1361C42.252 19.9961 43.136 19.9961 44.9 19.9961C45.672 19.9961 46.06 19.9961 46.432 20.0301C48.0341 20.1806 49.5536 20.8107 50.792 21.8381C51.08 22.0761 51.352 22.3481 51.9 22.8961L53 23.9961C54.632 25.6281 55.448 26.4441 56.424 26.9861C56.9604 27.2851 57.5295 27.5213 58.12 27.6901C59.196 27.9961 60.35 27.9961 62.656 27.9961H63.404C68.668 27.9961 71.302 27.9961 73.012 29.5361C73.17 29.6761 73.32 29.8261 73.46 29.9841C75 31.6941 75 34.3281 75 39.5921V43.9961C75 51.5381 75 55.3101 72.656 57.6521C70.314 59.9961 66.542 59.9961 59 59.9961H51C43.458 59.9961 39.686 59.9961 37.344 57.6521C35 55.3101 35 51.5381 35 43.9961V29.8961Z" stroke="#190207" stroke-width="1.5"/>
</svg>
