<svg xmlns="http://www.w3.org/2000/svg" width="34" height="33" fill="none" viewBox="0 0 34 33">
  <path stroke="#6E6F72" stroke-linecap="round" stroke-opacity=".94" stroke-width="1.5" d="M30.75 15.125H3.25" opacity=".5"/>
  <path stroke="#6E6F72" stroke-opacity=".94" stroke-width="1.5" d="M3.25 9.556c0-1.214 0-1.82.096-2.326a5.5 5.5 0 0 1 4.382-4.384c.508-.096 1.116-.096 2.328-.096.531 0 .798 0 1.054.023a5.5 5.5 0 0 1 2.997 1.243c.198.164.385.351.762.728l.756.756c1.122 1.122 1.683 1.683 2.354 2.056.369.205.76.368 1.166.484.74.21 1.533.21 3.119.21h.514c3.619 0 5.43 0 6.605 1.059.109.096.212.2.308.308 1.059 1.175 1.059 2.986 1.059 6.605v3.028c0 5.185 0 7.778-1.611 9.389-1.61 1.611-4.204 1.611-9.389 1.611h-5.5c-5.185 0-7.778 0-9.389-1.611-1.611-1.61-1.611-4.204-1.611-9.389V9.556Z"/>
</svg>
