<svg xmlns="http://www.w3.org/2000/svg" width="19" height="21" fill="none" viewBox="0 0 19 21">
  <path fill="#190207" fill-rule="evenodd" d="M15.833 19.169c-.874 0-1.583-.69-1.583-1.539a1.497 1.497 0 0 1 .215-.775 1.592 1.592 0 0 1 1.368-.763c.875 0 1.584.688 1.584 1.538 0 .85-.71 1.539-1.584 1.539Zm-2.284-3.67a3.202 3.202 0 0 1 2.284-.946c1.75 0 3.167 1.378 3.167 3.077 0 1.7-1.418 3.077-3.167 3.077-1.749 0-3.166-1.378-3.166-3.077 0-.273.036-.538.105-.79l-7.321-4.002a3.202 3.202 0 0 1-2.284.946C1.417 13.784 0 12.406 0 10.707c0-1.7 1.418-3.077 3.167-3.077.897 0 1.708.363 2.284.946l7.321-4.001a2.996 2.996 0 0 1-.105-.791c0-1.7 1.417-3.077 3.166-3.077C17.583.707 19 2.085 19 3.784c0 1.7-1.418 3.077-3.167 3.077a3.202 3.202 0 0 1-2.284-.946L6.228 9.916a3 3 0 0 1 0 1.582l7.321 4.001Zm-9.014-4.017a.74.74 0 0 1 .024-.042 1.498 1.498 0 0 0-.024-1.508 1.592 1.592 0 0 0-1.368-.763c-.875 0-1.584.688-1.584 1.538 0 .85.71 1.538 1.584 1.538.583 0 1.093-.306 1.368-.763Zm9.906-6.965a1.165 1.165 0 0 1 .024.042c.275.457.785.763 1.368.763.875 0 1.584-.688 1.584-1.538 0-.85-.71-1.539-1.584-1.539-.874 0-1.583.69-1.583 1.539 0 .265.07.515.19.733Z" clip-rule="evenodd"/>
</svg>
