<svg xmlns="http://www.w3.org/2000/svg" width="15" height="17" fill="none" viewBox="0 0 15 17">
  <path fill="#6E6F72" fill-opacity=".94" fill-rule="evenodd" d="M12.222 15.26a1.222 1.222 0 1 1 0-2.444 1.222 1.222 0 0 1 0 2.444Zm-1.764-2.915a2.444 2.444 0 1 1-.6 1.065l-5.65-3.179a2.444 2.444 0 1 1 0-3.386l5.65-3.178A2.448 2.448 0 0 1 12.223.595a2.444 2.444 0 1 1-1.764 4.137L4.808 7.91a2.448 2.448 0 0 1 0 1.256l5.65 3.18ZM3.5 9.155a.609.609 0 0 1 .02-.034 1.217 1.217 0 0 0-.02-1.198 1.222 1.222 0 1 0 0 1.231Zm7.646-5.534a.826.826 0 0 1 .02.034 1.222 1.222 0 1 0-.02-.034Z" clip-rule="evenodd"/>
</svg>
