<svg width="228" height="77" viewBox="0 0 228 77" fill="none" xmlns="http://www.w3.org/2000/svg">
<g clip-path="url(#clip0_627_21253)">
<path d="M36.2411 69.3286C36.803 71.2243 37.2981 73.1434 37.9465 75.0079C38.5398 76.7129 38.6145 76.709 36.7205 76.5572C28.952 75.9305 21.9459 73.2952 15.8435 68.5033C7.19875 61.7184 2.33412 52.8198 1.11207 41.9671C0.833083 39.4758 0.833083 39.4486 3.12001 38.4676C5.59554 37.4049 8.12609 36.5486 10.861 37.4517C13.5408 38.3392 14.2756 39.5809 13.6902 42.3019C13.3679 43.7928 12.7785 45.2292 12.4838 46.7239C11.8276 50.0872 13.4387 53.2792 16.4172 54.7545C19.4664 56.2648 23.0815 55.6031 25.3802 53.03C27.1524 51.0448 27.6239 48.7209 26.9873 46.1556C26.5433 44.365 25.9578 42.5744 25.8164 40.7565C25.7535 39.9507 26.4411 38.8258 27.1327 38.273C28.8459 36.9028 30.9403 36.895 33.0268 37.3115C33.6202 37.4283 34.2175 37.584 34.7794 37.8098C35.9464 38.2808 37.4946 38.5338 38.1076 39.4097C38.528 40.0052 37.6636 41.5195 37.3138 42.6055C36.4887 45.1786 36.0879 47.7633 37.141 50.3597C38.5359 53.7969 40.9132 54.9725 44.5361 54.0538C45.8053 53.7307 47.0431 53.2908 48.3123 52.9833C50.611 52.4267 52.619 52.9716 54.0689 54.8713C55.4324 56.6619 55.5621 58.6549 54.4658 60.6207C53.287 62.7305 51.3497 63.5013 49.0117 63.2015C47.9115 63.0614 46.8231 62.7072 45.77 62.3451C39.1843 60.0757 36.5673 64.5795 36.2372 69.3363L36.2411 69.3286Z" fill="#1653FF"/>
<path d="M78.5913 39.524C78.163 46.8928 76.2101 53.5336 72.1235 59.4505C65.0623 69.6803 55.227 75.3052 42.7786 76.5042C41.5958 76.617 40.7706 76.3991 40.4523 75.1729C39.8904 72.9969 38.8059 70.8053 38.8845 68.6527C39.0377 64.5226 40.9474 63.2808 44.5822 64.3007C45.706 64.616 46.818 64.9897 47.9536 65.2583C51.2268 66.0368 54.3075 64.8418 56.1661 62.1169C57.8322 59.6762 57.7732 56.1417 56.0246 53.7399C54.1032 51.1007 50.9125 49.9796 47.6982 50.8399C46.6137 51.128 45.5567 51.5134 44.4682 51.7819C41.0221 52.6344 39.4071 51.7742 38.8177 47.6869C38.4169 44.9114 39.6389 42.424 40.9317 40.0417C41.0378 39.851 41.6822 39.8159 42.028 39.9016C44.0988 40.4232 46.1304 41.1317 48.2287 41.5015C49.2817 41.6883 50.4802 41.4392 51.5412 41.1394C55.3252 40.069 56.838 37.4687 55.9343 33.6889C55.5924 32.2486 55.0541 30.8551 54.7279 29.4109C54.2407 27.266 55.1602 25.0706 56.9559 23.9768C58.8931 22.7934 60.8775 22.8323 62.7872 24.0235C64.5633 25.1329 65.412 27.3439 64.9169 29.5004C64.6497 30.6721 64.2921 31.8282 63.9188 32.9688C62.1663 38.29 65.6399 41.19 70.0055 41.4275C72.2532 41.5482 74.5558 40.6996 76.827 40.2402C77.3575 40.1312 77.8487 39.8315 78.5913 39.524Z" fill="#1653FF"/>
<path d="M0.929688 36.931C1.35799 34.1906 1.57804 31.7538 2.13209 29.3871C5.78253 13.7231 19.4058 1.85049 35.5951 0.12215C38.4478 -0.181476 38.5932 -0.107516 39.7052 2.60566C40.7465 5.15534 41.3556 7.75563 40.0982 10.4065C39.2258 12.2478 38.1413 12.7616 36.1177 12.3178C34.7031 12.0064 33.3278 11.5315 31.9211 11.189C27.9995 10.2314 24.463 11.8741 22.8205 15.3852C21.288 18.6589 22.3647 22.4426 25.579 24.6964C27.3354 25.9304 29.3394 26.308 31.4574 25.7786C32.9977 25.3932 34.5066 24.8327 36.0666 24.5758C38.7582 24.1281 40.3025 25.4127 40.6837 28.1025C41.108 31.1154 40.0432 33.7624 38.6954 36.3355C38.5971 36.5262 37.8309 36.5418 37.4694 36.4016C34.7974 35.3545 32.1254 34.3852 29.1665 34.9769C24.4001 35.9306 22.6083 38.7061 23.795 43.3773C24.0701 44.4516 24.4709 45.4988 24.7459 46.5731C25.3589 48.9827 24.628 51.0575 22.7576 52.3615C21.1466 53.4826 18.5649 53.502 16.9185 52.4082C15.0638 51.1742 14.2544 48.9982 14.8281 46.651C15.0678 45.6622 15.39 44.6891 15.7043 43.7198C17.614 37.8614 13.8221 35.0781 8.97715 34.8796C6.9142 34.794 4.80803 35.701 2.72936 36.1953C2.24604 36.3082 1.80202 36.569 0.933617 36.931H0.929688Z" fill="#1653FF"/>
<path d="M78.3459 35.2462C78.7152 36.4958 78.0472 37.3755 76.6641 37.7298C74.6051 38.2592 72.5342 39.0338 70.4477 39.1116C66.9152 39.244 65.3159 36.924 66.2314 33.5452C66.593 32.2061 67.0331 30.8826 67.3042 29.5241C67.8779 26.6474 66.5694 23.5605 64.1096 22.0346C61.3668 20.3335 58.4983 20.2323 55.7635 21.9567C53.0404 23.6773 51.8144 26.2464 52.3291 29.454C52.5492 30.8164 53.0443 32.1321 53.4176 33.4712C54.3056 36.6671 53.0875 38.6718 49.8418 39.1272C46.9773 39.5321 44.3996 38.5044 41.9476 37.1887C41.6922 37.0524 41.5743 36.3323 41.6686 35.9469C42.1441 34.024 42.9732 32.1516 43.1932 30.2053C43.8966 24.0004 39.3856 20.5787 33.4797 22.6535C31.7704 23.253 30.0572 23.9537 28.175 23.2257C25.4401 22.1708 24.0294 19.6912 24.7839 17.1844C25.6444 14.3194 28.1121 12.8596 31.0867 13.4902C33.0435 13.9067 34.969 14.514 36.9455 14.7904C40.3012 15.2575 42.0144 12.8324 43.0282 9.80779C43.9555 7.03233 42.9575 4.47096 42.0301 1.92517C41.3189 -0.0367236 41.3661 -0.130147 43.5037 0.0839486C49.3153 0.671739 54.7025 2.47793 59.7518 5.38963C70.1884 11.4116 77.9136 23.6695 78.3459 35.2346V35.2462Z" fill="#1653FF"/>
<g clip-path="url(#clip1_627_21253)">
<path d="M100.592 41.024L93.541 19.6172H96.9814L102.291 36.0971H101.356L106.538 19.6172H109.002L114.183 36.0971H113.249L118.516 19.6172H121.999L114.948 41.024H112.484L107.303 24.5866H108.237L103.013 41.024H100.592Z" fill="#252523"/>
<path d="M126.376 23.6517C125.824 23.6517 125.314 23.4393 124.974 23.0571C124.592 22.6748 124.422 22.2076 124.422 21.613C124.422 21.0183 124.592 20.5511 124.974 20.1689C125.356 19.7866 125.824 19.5742 126.376 19.5742C126.97 19.5742 127.438 19.7866 127.82 20.1689C128.202 20.5511 128.372 21.0183 128.372 21.613C128.372 22.2076 128.202 22.6748 127.82 23.0571C127.438 23.4818 126.928 23.6517 126.376 23.6517ZM124.677 41.0235V26.3276H128.032V41.0235H124.677Z" fill="#252523"/>
<path d="M131.809 41.0249V19.0234H135.164V41.0249H131.809ZM141.11 41.0249L134.909 33.5495L141.11 26.3289H145.103L138.01 34.399L138.18 32.4877L145.443 41.0249H141.11Z" fill="#252523"/>
<path d="M148.585 23.6517C148.033 23.6517 147.523 23.4393 147.183 23.0571C146.801 22.6748 146.631 22.2076 146.631 21.613C146.631 21.0183 146.801 20.5511 147.183 20.1689C147.565 19.7866 148.033 19.5742 148.585 19.5742C149.179 19.5742 149.647 19.7866 150.029 20.1689C150.411 20.5511 150.581 21.0183 150.581 21.613C150.581 22.2076 150.411 22.6748 150.029 23.0571C149.647 23.4818 149.179 23.6517 148.585 23.6517ZM146.886 41.0235V26.3276H150.241V41.0235H146.886Z" fill="#252523"/>
<path d="M154.023 47.1432V26.331H157.379V30.2811L156.784 33.8489L157.379 37.4167V47.1432H154.023ZM161.881 41.3243C160.777 41.3243 159.757 41.0695 158.865 40.6022C157.974 40.135 157.294 39.4554 156.784 38.6484C156.275 37.799 156.02 36.8645 156.02 35.8027V31.5978C156.02 30.5359 156.275 29.6015 156.784 28.752C157.294 27.9025 157.974 27.2654 158.865 26.7982C159.757 26.331 160.734 26.0762 161.839 26.0762C163.155 26.0762 164.345 26.416 165.449 27.0955C166.511 27.7751 167.36 28.7096 167.997 29.8563C168.634 31.0031 168.932 32.3198 168.932 33.7639C168.932 35.2081 168.634 36.4823 167.997 37.6291C167.36 38.7759 166.511 39.7103 165.449 40.3474C164.43 40.9845 163.198 41.3243 161.881 41.3243ZM161.329 38.1388C162.136 38.1388 162.858 37.9689 163.495 37.5866C164.132 37.2043 164.599 36.6946 164.982 36.0151C165.364 35.3355 165.534 34.5709 165.534 33.679C165.534 32.787 165.364 32.0225 164.982 31.3429C164.599 30.6634 164.132 30.1537 163.495 29.7714C162.858 29.3891 162.136 29.2192 161.329 29.2192C160.522 29.2192 159.8 29.3891 159.163 29.7714C158.526 30.1537 158.058 30.6634 157.676 31.3429C157.336 32.0225 157.167 32.787 157.167 33.679C157.167 34.5709 157.336 35.3355 157.676 36.0151C158.016 36.6946 158.526 37.2043 159.163 37.5866C159.8 37.9689 160.522 38.1388 161.329 38.1388Z" fill="#252523"/>
<path d="M178.575 41.323C177.089 41.323 175.772 40.9832 174.625 40.3461C173.436 39.6665 172.544 38.7746 171.822 37.6278C171.143 36.481 170.803 35.1643 170.803 33.7202C170.803 32.2761 171.143 30.9594 171.822 29.8126C172.502 28.6658 173.394 27.7314 174.54 27.0943C175.687 26.4147 176.961 26.0749 178.363 26.0749C179.722 26.0749 180.954 26.3722 181.973 27.0093C183.035 27.6464 183.842 28.4959 184.437 29.6002C185.031 30.7045 185.329 31.9363 185.329 33.3804C185.329 33.6352 185.329 33.8901 185.286 34.1449C185.244 34.3998 185.201 34.6971 185.159 34.9944H173.096V32.2336H183.417L182.143 33.3379C182.101 32.446 181.931 31.6814 181.634 31.0868C181.336 30.4922 180.912 30.025 180.317 29.6852C179.765 29.3454 179.085 29.1755 178.236 29.1755C177.386 29.1755 176.622 29.3454 175.985 29.7276C175.347 30.1099 174.88 30.6196 174.498 31.2567C174.158 31.9363 173.988 32.7008 173.988 33.6352C173.988 34.5697 174.158 35.3767 174.54 36.0562C174.923 36.7358 175.432 37.288 176.112 37.6702C176.792 38.0525 177.556 38.2224 178.448 38.2224C179.213 38.2224 179.892 38.095 180.529 37.8401C181.166 37.5853 181.719 37.203 182.186 36.6934L184.309 38.8595C183.587 39.709 182.738 40.3461 181.719 40.7708C180.827 41.1106 179.722 41.323 178.575 41.323ZM176.622 24.2485L175.093 22.7194L179 17.75L181.591 20.3409L176.622 24.2485Z" fill="#252523"/>
<path d="M194.247 41.3222C192.931 41.3222 191.741 40.9824 190.637 40.3029C189.575 39.6233 188.726 38.7313 188.089 37.5845C187.452 36.4377 187.154 35.1635 187.154 33.7194C187.154 32.2753 187.452 30.9586 188.089 29.8118C188.726 28.665 189.575 27.7306 190.637 27.051C191.699 26.3714 192.888 26.0316 194.247 26.0316C195.352 26.0316 196.371 26.2865 197.221 26.7537C198.07 27.2209 198.792 27.9005 199.302 28.7075C199.812 29.557 200.066 30.4914 200.066 31.5532V35.7582C200.066 36.82 199.812 37.7544 199.302 38.6039C198.792 39.4534 198.113 40.0905 197.221 40.5577C196.371 41.1099 195.352 41.3222 194.247 41.3222ZM194.8 38.1367C195.649 38.1367 196.371 37.9668 196.966 37.5845C197.603 37.2023 198.07 36.6926 198.41 36.013C198.75 35.3334 198.92 34.5689 198.92 33.6769C198.92 32.785 198.75 32.0204 198.41 31.3409C198.07 30.6613 197.56 30.1516 196.966 29.7693C196.329 29.3871 195.607 29.2172 194.8 29.2172C193.993 29.2172 193.271 29.3871 192.633 29.7693C191.996 30.1516 191.529 30.6613 191.147 31.3409C190.807 32.0204 190.595 32.785 190.595 33.6769C190.595 34.5689 190.765 35.3334 191.147 36.013C191.487 36.6926 191.996 37.2023 192.633 37.5845C193.271 37.9668 193.993 38.1367 194.8 38.1367ZM202.105 41.0249H198.75V37.0748L199.344 33.507L198.75 29.9392V19.0234H202.105V41.0249Z" fill="#252523"/>
<path d="M207.544 23.6517C206.991 23.6517 206.482 23.4393 206.142 23.0571C205.76 22.6748 205.59 22.2076 205.59 21.613C205.59 21.0183 205.76 20.5511 206.142 20.1689C206.524 19.7866 206.991 19.5742 207.544 19.5742C208.138 19.5742 208.605 19.7866 208.988 20.1689C209.37 20.5511 209.54 21.0183 209.54 21.613C209.54 22.2076 209.37 22.6748 208.988 23.0571C208.605 23.4818 208.138 23.6517 207.544 23.6517ZM205.887 41.0235V26.3276H209.243V41.0235H205.887Z" fill="#252523"/>
<path d="M219.134 41.3219C217.817 41.3219 216.628 40.9821 215.524 40.3025C214.462 39.6229 213.613 38.7309 212.975 37.5841C212.338 36.4374 212.041 35.1631 212.041 33.719C212.041 32.2749 212.338 30.9582 212.975 29.8114C213.613 28.6646 214.462 27.7302 215.524 27.0506C216.586 26.371 217.775 26.0312 219.134 26.0312C220.238 26.0312 221.258 26.2861 222.107 26.7533C222.957 27.2205 223.679 27.9001 224.189 28.7071C224.698 29.5566 224.953 30.491 224.953 31.5529V35.7578C224.953 36.8196 224.698 37.754 224.189 38.6035C223.679 39.453 222.999 40.0901 222.107 40.5573C221.258 41.1095 220.238 41.3219 219.134 41.3219ZM219.686 38.1363C220.918 38.1363 221.937 37.7116 222.702 36.8621C223.466 36.0126 223.849 34.9508 223.849 33.6341C223.849 32.7421 223.679 31.9776 223.339 31.298C222.999 30.6184 222.49 30.1087 221.895 29.7265C221.258 29.3442 220.536 29.1743 219.729 29.1743C218.922 29.1743 218.2 29.3442 217.563 29.7265C216.926 30.1087 216.458 30.6184 216.076 31.298C215.736 31.9776 215.524 32.7421 215.524 33.6341C215.524 34.526 215.694 35.2906 216.076 35.9701C216.416 36.6497 216.926 37.1594 217.563 37.5417C218.157 37.9664 218.879 38.1363 219.686 38.1363ZM223.636 41.0245V37.0745L224.231 33.5067L223.636 29.9388V26.3286H226.992V41.0245H223.636Z" fill="#252523"/>
<path d="M93.5879 58.1882V50.2031H94.4374V58.1457H93.5879V58.1882ZM94.1401 58.1882V57.4237H98.5149V58.1882H94.1401Z" fill="#08090A"/>
<path d="M100.808 52.5367L100.596 49.9883H101.53L101.318 52.5367H100.808Z" fill="#08090A"/>
<path d="M107.604 58.3165C107.051 58.3165 106.584 58.1891 106.159 57.9342C105.735 57.6794 105.395 57.3396 105.14 56.9149C104.885 56.4901 104.758 55.9804 104.758 55.4708C104.758 54.9186 104.885 54.4514 105.14 54.0266C105.395 53.6019 105.735 53.2621 106.159 53.0073C106.584 52.7524 107.051 52.625 107.561 52.625C108.071 52.625 108.496 52.7524 108.878 52.9648C109.26 53.1772 109.557 53.517 109.77 53.8992C109.982 54.2815 110.11 54.7487 110.11 55.2584C110.11 55.3009 110.11 55.3858 110.11 55.4708C110.11 55.5557 110.067 55.6406 110.067 55.7681H105.31V55.0885H109.557L109.26 55.3433C109.26 54.9611 109.218 54.6213 109.048 54.324C108.878 54.0266 108.708 53.8143 108.453 53.6444C108.198 53.4745 107.858 53.3895 107.519 53.3895C107.136 53.3895 106.797 53.4745 106.499 53.6444C106.202 53.8143 105.99 54.0691 105.82 54.3664C105.65 54.6638 105.565 55.046 105.565 55.4283C105.565 55.853 105.65 56.1928 105.82 56.5326C105.99 56.8299 106.244 57.0848 106.542 57.2547C106.839 57.4246 107.221 57.5095 107.604 57.5095C107.943 57.5095 108.241 57.467 108.496 57.3396C108.793 57.2122 109.005 57.0423 109.218 56.7874L109.77 57.3396C109.515 57.6369 109.218 57.8918 108.835 58.0617C108.453 58.2316 108.028 58.3165 107.604 58.3165Z" fill="#08090A"/>
<path d="M113.166 58.1891V52.7524H113.973V58.1891H113.166ZM117.116 58.1891V55.0035C117.116 54.5363 116.989 54.1541 116.691 53.8567C116.394 53.5594 116.012 53.432 115.587 53.432C115.29 53.432 114.992 53.517 114.78 53.6444C114.525 53.7718 114.355 53.9842 114.228 54.1965C114.1 54.4514 114.015 54.7062 114.015 55.0035L113.633 54.7912C113.633 54.3664 113.718 54.0266 113.931 53.6868C114.143 53.3471 114.398 53.0922 114.738 52.9223C115.077 52.7524 115.46 52.625 115.842 52.625C116.224 52.625 116.649 52.7099 116.946 52.9223C117.286 53.1347 117.541 53.3895 117.711 53.7293C117.881 54.0691 117.966 54.4514 117.966 54.8336V58.1466H117.116V58.1891Z" fill="#08090A"/>
<path d="M123.787 58.3165C123.235 58.3165 122.768 58.1891 122.343 57.9342C121.918 57.6794 121.579 57.3396 121.324 56.9149C121.069 56.4901 120.941 55.9804 120.941 55.4708C120.941 54.9186 121.069 54.4514 121.324 54.0266C121.579 53.6019 121.918 53.2621 122.343 53.0073C122.768 52.7524 123.235 52.625 123.787 52.625C124.212 52.625 124.594 52.7099 124.934 52.8374C125.274 53.0073 125.571 53.2196 125.826 53.4745L125.274 54.0266C125.104 53.8143 124.849 53.6444 124.594 53.5594C124.339 53.432 124.042 53.3895 123.745 53.3895C123.362 53.3895 123.023 53.4745 122.725 53.6444C122.428 53.8143 122.173 54.0691 122.003 54.3664C121.833 54.6638 121.748 55.0035 121.748 55.4283C121.748 55.8105 121.833 56.1928 122.003 56.4901C122.173 56.7874 122.428 57.0423 122.725 57.2122C123.023 57.3821 123.362 57.467 123.745 57.467C124.042 57.467 124.339 57.4246 124.594 57.2971C124.849 57.1697 125.104 57.0423 125.274 56.8299L125.826 57.3821C125.571 57.6794 125.274 57.8918 124.891 58.0617C124.594 58.2316 124.212 58.3165 123.787 58.3165Z" fill="#08090A"/>
<path d="M130.668 58.2311L128.289 52.752H129.181L131.092 57.2967H130.753L132.791 52.752H133.726L131.177 58.2311H130.668ZM129.181 60.4822L130.668 57.3816L131.135 58.2311L130.073 60.4822H129.181Z" fill="#08090A"/>
<path d="M138.738 58.3165C138.186 58.3165 137.719 58.1891 137.294 57.9342C136.869 57.6794 136.53 57.3396 136.275 56.9149C136.02 56.4901 135.893 55.9804 135.893 55.4708C135.893 54.9186 136.02 54.4514 136.275 54.0266C136.53 53.6019 136.869 53.2621 137.294 53.0073C137.719 52.7524 138.186 52.625 138.738 52.625C139.163 52.625 139.545 52.7099 139.885 52.8374C140.225 53.0073 140.522 53.2196 140.777 53.4745L140.225 54.0266C140.055 53.8143 139.8 53.6444 139.545 53.5594C139.29 53.432 138.993 53.3895 138.696 53.3895C138.314 53.3895 137.974 53.4745 137.676 53.6444C137.379 53.8143 137.124 54.0691 136.954 54.3664C136.785 54.6638 136.7 55.0035 136.7 55.4283C136.7 55.8105 136.785 56.1928 136.954 56.4901C137.124 56.7874 137.379 57.0423 137.676 57.2122C137.974 57.3821 138.314 57.467 138.696 57.467C138.993 57.467 139.29 57.4246 139.545 57.2971C139.8 57.1697 140.055 57.0423 140.225 56.8299L140.777 57.3821C140.522 57.6794 140.225 57.8918 139.843 58.0617C139.545 58.2316 139.163 58.3165 138.738 58.3165Z" fill="#08090A"/>
<path d="M143.791 58.1857V49.9883H144.598V58.1857H143.791Z" fill="#08090A"/>
<path d="M150.545 58.317C149.993 58.317 149.526 58.1896 149.101 57.9347C148.676 57.6799 148.336 57.3401 148.081 56.9154C147.827 56.4906 147.699 55.9809 147.699 55.4712C147.699 54.9616 147.827 54.4519 148.081 54.0696C148.336 53.6449 148.676 53.3051 149.101 53.0502C149.526 52.7954 149.993 52.668 150.545 52.668C151.055 52.668 151.564 52.7954 151.989 53.0502C152.414 53.3051 152.754 53.6449 153.008 54.0696C153.263 54.4943 153.391 54.9616 153.391 55.5137C153.391 56.0659 153.263 56.5331 153.008 56.9578C152.754 57.3826 152.414 57.7224 151.989 57.9772C151.564 58.1896 151.097 58.317 150.545 58.317ZM150.545 57.51C150.927 57.51 151.267 57.425 151.564 57.2551C151.862 57.0853 152.117 56.8304 152.286 56.5331C152.456 56.2358 152.541 55.8535 152.541 55.4712C152.541 55.089 152.456 54.7492 152.286 54.4519C152.117 54.1546 151.862 53.8997 151.564 53.7298C151.267 53.5599 150.927 53.475 150.545 53.475C150.163 53.475 149.823 53.5599 149.526 53.7298C149.228 53.8997 148.973 54.1546 148.804 54.4519C148.634 54.7492 148.549 55.089 148.549 55.4712C148.549 55.8535 148.634 56.2358 148.804 56.5331C148.973 56.8304 149.228 57.0853 149.526 57.2551C149.865 57.425 150.205 57.51 150.545 57.51Z" fill="#08090A"/>
<path d="M156.488 60.4832V52.7529H157.295V54.1546L157.125 55.4712L157.295 56.7879V60.4832H156.488ZM159.334 58.317C158.909 58.317 158.527 58.232 158.23 58.0622C157.89 57.8923 157.635 57.6799 157.423 57.3826C157.21 57.0853 157.083 56.7455 157.04 56.3632V54.6642C157.083 54.282 157.21 53.8997 157.423 53.6024C157.635 53.3051 157.932 53.0927 158.23 52.9228C158.57 52.7529 158.952 52.668 159.334 52.668C159.844 52.668 160.268 52.7954 160.693 53.0502C161.075 53.3051 161.415 53.6449 161.628 54.0696C161.882 54.4943 161.967 54.9616 161.967 55.5137C161.967 56.0659 161.84 56.5331 161.628 56.9578C161.415 57.3826 161.075 57.7224 160.693 57.9772C160.268 58.1896 159.844 58.317 159.334 58.317ZM159.164 57.51C159.546 57.51 159.886 57.425 160.184 57.2551C160.481 57.0853 160.693 56.8304 160.863 56.5331C161.033 56.2358 161.118 55.8535 161.118 55.4712C161.118 55.089 161.033 54.7067 160.863 54.4094C160.693 54.1121 160.481 53.8572 160.184 53.6873C159.886 53.5174 159.546 53.4325 159.164 53.4325C158.782 53.4325 158.442 53.5174 158.145 53.6873C157.847 53.8572 157.635 54.1121 157.465 54.4094C157.295 54.7067 157.21 55.089 157.21 55.4712C157.21 55.8535 157.295 56.2358 157.465 56.5331C157.635 56.8304 157.847 57.0853 158.145 57.2551C158.485 57.425 158.824 57.51 159.164 57.51Z" fill="#08090A"/>
<path d="M167.621 58.3156C167.069 58.3156 166.602 58.1881 166.177 57.9333C165.752 57.6785 165.413 57.3387 165.158 56.9139C164.903 56.4892 164.775 55.9795 164.775 55.4698C164.775 54.9176 164.903 54.4504 165.158 54.0257C165.413 53.601 165.752 53.2612 166.177 53.0063C166.602 52.7515 167.069 52.6241 167.579 52.6241C168.088 52.6241 168.513 52.7515 168.895 52.9638C169.278 53.1762 169.575 53.516 169.787 53.8983C170 54.2805 170.127 54.7478 170.127 55.2574C170.127 55.2999 170.127 55.3849 170.127 55.4698C170.127 55.5548 170.085 55.6397 170.085 55.7671H165.328V55.0875H169.575L169.278 55.3424C169.278 54.9601 169.235 54.6203 169.065 54.323C168.895 54.0257 168.725 53.8133 168.471 53.6434C168.216 53.4735 167.876 53.3886 167.536 53.3886C167.154 53.3886 166.814 53.4735 166.517 53.6434C166.22 53.8133 166.007 54.0682 165.837 54.3655C165.667 54.6628 165.582 55.0451 165.582 55.4273C165.582 55.8521 165.667 56.1919 165.837 56.5317C166.007 56.829 166.262 57.0838 166.559 57.2537C166.857 57.4236 167.239 57.5086 167.621 57.5086C167.961 57.5086 168.258 57.4661 168.513 57.3387C168.81 57.2112 169.023 57.0413 169.235 56.7865L169.787 57.3387C169.532 57.636 169.235 57.8908 168.853 58.0607C168.471 58.2306 168.046 58.3156 167.621 58.3156ZM166.814 51.902L166.432 51.5197L167.961 49.6934L168.641 50.3305L166.814 51.902Z" fill="#08090A"/>
<path d="M175.52 58.3132C175.01 58.3132 174.543 58.1857 174.161 57.9309C173.779 57.6761 173.439 57.3363 173.227 56.9115C173.014 56.4868 172.887 56.0196 172.887 55.4674C172.887 54.9153 173.014 54.448 173.227 54.0233C173.439 53.5986 173.779 53.2588 174.161 53.0039C174.586 52.7491 175.01 52.6217 175.52 52.6217C175.902 52.6217 176.285 52.7066 176.624 52.8765C176.964 53.0464 177.219 53.2588 177.431 53.5561C177.644 53.8534 177.771 54.1932 177.814 54.6179V56.3169C177.771 56.6992 177.644 57.0389 177.431 57.3363C177.219 57.6336 176.964 57.846 176.624 58.0158C176.285 58.2282 175.902 58.3132 175.52 58.3132ZM175.648 57.5062C176.03 57.5062 176.37 57.4212 176.624 57.2513C176.922 57.0814 177.134 56.8266 177.304 56.5293C177.474 56.2319 177.559 55.8497 177.559 55.4674C177.559 55.0427 177.474 54.7029 177.304 54.4056C177.134 54.1082 176.922 53.8534 176.624 53.6835C176.327 53.5136 175.987 53.4287 175.648 53.4287C175.265 53.4287 174.925 53.5136 174.628 53.6835C174.331 53.8534 174.118 54.1082 173.949 54.4056C173.779 54.7029 173.694 55.0851 173.694 55.4674C173.694 55.8497 173.779 56.2319 173.949 56.5293C174.118 56.8266 174.331 57.0814 174.628 57.2513C174.925 57.4212 175.265 57.5062 175.648 57.5062ZM178.323 58.1857H177.516V56.7416L177.686 55.3825L177.516 54.0658V49.9883H178.323V58.1857Z" fill="#08090A"/>
<path d="M182.189 51.5604C182.019 51.5604 181.892 51.5179 181.807 51.3905C181.679 51.263 181.637 51.1356 181.637 50.9657C181.637 50.7958 181.679 50.6684 181.807 50.541C181.934 50.4136 182.061 50.3711 182.189 50.3711C182.359 50.3711 182.486 50.4136 182.614 50.541C182.699 50.6684 182.784 50.7958 182.784 50.9657C182.784 51.1356 182.741 51.263 182.614 51.3905C182.529 51.5179 182.359 51.5604 182.189 51.5604ZM181.807 58.1863V52.7496H182.614V58.1863H181.807Z" fill="#08090A"/>
<path d="M188.602 58.3165C188.049 58.3165 187.582 58.1891 187.157 57.9342C186.733 57.6794 186.393 57.3396 186.138 56.9149C185.883 56.4901 185.756 55.9804 185.756 55.4708C185.756 54.9186 185.883 54.4514 186.138 54.0266C186.393 53.6019 186.733 53.2621 187.157 53.0073C187.582 52.7524 188.049 52.625 188.559 52.625C189.069 52.625 189.494 52.7524 189.876 52.9648C190.258 53.1772 190.555 53.517 190.768 53.8992C190.98 54.2815 191.108 54.7487 191.108 55.2584C191.108 55.3009 191.108 55.3858 191.108 55.4708C191.108 55.5557 191.065 55.6406 191.065 55.7681H186.35V55.0885H190.598L190.301 55.3433C190.301 54.9611 190.258 54.6213 190.088 54.324C189.961 54.0266 189.748 53.8143 189.494 53.6444C189.239 53.4745 188.899 53.3895 188.559 53.3895C188.177 53.3895 187.837 53.4745 187.54 53.6444C187.242 53.8143 187.03 54.0691 186.86 54.3664C186.69 54.6638 186.605 55.046 186.605 55.4283C186.605 55.853 186.69 56.1928 186.86 56.5326C187.03 56.8299 187.285 57.0848 187.582 57.2547C187.88 57.4246 188.262 57.5095 188.644 57.5095C188.984 57.5095 189.281 57.467 189.536 57.3396C189.833 57.2122 190.046 57.0423 190.258 56.7874L190.81 57.3396C190.555 57.6369 190.258 57.8918 189.876 58.0617C189.451 58.2316 189.026 58.3165 188.602 58.3165Z" fill="#08090A"/>
<path d="M198.498 58.1857V49.9883H199.305V58.1857H198.498Z" fill="#08090A"/>
<path d="M203.255 51.5604C203.085 51.5604 202.958 51.5179 202.873 51.3905C202.746 51.263 202.703 51.1356 202.703 50.9657C202.703 50.7958 202.746 50.6684 202.873 50.541C203 50.4136 203.128 50.3711 203.255 50.3711C203.425 50.3711 203.553 50.4136 203.68 50.541C203.765 50.6684 203.85 50.7958 203.85 50.9657C203.85 51.1356 203.807 51.263 203.68 51.3905C203.553 51.5179 203.425 51.5604 203.255 51.5604ZM202.831 58.1863V52.7496H203.638V58.1863H202.831Z" fill="#08090A"/>
<path d="M207.119 58.1857V49.9883H207.926V54.0658L207.756 55.3825L207.926 56.7416V58.1857H207.119ZM209.965 58.3132C209.54 58.3132 209.158 58.2282 208.861 58.0583C208.521 57.8884 208.266 57.6761 208.054 57.3787C207.841 57.0814 207.714 56.7416 207.671 56.3594V54.6604C207.714 54.2781 207.841 53.8959 208.054 53.5986C208.266 53.3012 208.563 53.0889 208.861 52.919C209.2 52.7491 209.583 52.6641 209.965 52.6641C210.475 52.6641 210.899 52.7916 211.324 53.0464C211.706 53.3012 212.046 53.641 212.258 54.0658C212.513 54.4905 212.598 54.9577 212.598 55.5099C212.598 56.062 212.471 56.5293 212.258 56.954C212.046 57.3787 211.706 57.7185 211.324 57.9734C210.899 58.1857 210.475 58.3132 209.965 58.3132ZM209.795 57.5062C210.177 57.5062 210.517 57.4212 210.814 57.2513C211.112 57.0814 211.324 56.8266 211.494 56.5293C211.664 56.2319 211.749 55.8497 211.749 55.4674C211.749 55.0851 211.664 54.7029 211.494 54.4056C211.324 54.1082 211.112 53.8534 210.814 53.6835C210.517 53.5136 210.177 53.4287 209.795 53.4287C209.413 53.4287 209.073 53.5136 208.776 53.6835C208.478 53.8534 208.266 54.1082 208.096 54.4056C207.926 54.7029 207.841 55.0851 207.841 55.4674C207.841 55.8497 207.926 56.2319 208.096 56.5293C208.266 56.8266 208.478 57.0814 208.776 57.2513C209.115 57.4212 209.455 57.5062 209.795 57.5062Z" fill="#08090A"/>
<path d="M215.742 58.1891V52.7524H216.549V58.1891H215.742ZM216.549 55.0035L216.209 54.8761C216.209 54.1965 216.379 53.6444 216.719 53.2196C217.059 52.8374 217.526 52.625 218.121 52.625C218.376 52.625 218.63 52.6675 218.843 52.7524C219.055 52.8374 219.268 53.0073 219.48 53.2196L218.928 53.7718C218.8 53.6444 218.673 53.517 218.503 53.4745C218.333 53.432 218.163 53.3895 217.951 53.3895C217.526 53.3895 217.186 53.517 216.931 53.8143C216.677 54.0691 216.549 54.4939 216.549 55.0035Z" fill="#08090A"/>
<path d="M224.494 58.3165C223.942 58.3165 223.475 58.1891 223.05 57.9342C222.625 57.6794 222.286 57.3396 222.031 56.9149C221.776 56.4901 221.648 55.9804 221.648 55.4708C221.648 54.9186 221.776 54.4514 222.031 54.0266C222.286 53.6019 222.625 53.2621 223.05 53.0073C223.475 52.7524 223.942 52.625 224.452 52.625C224.961 52.625 225.386 52.7524 225.768 52.9648C226.151 53.1772 226.448 53.517 226.66 53.8992C226.873 54.2815 227 54.7487 227 55.2584C227 55.3009 227 55.3858 227 55.4708C227 55.5557 226.958 55.6406 226.958 55.7681H222.243V55.0885H226.49L226.193 55.3433C226.193 54.9611 226.151 54.6213 225.981 54.324C225.853 54.0266 225.641 53.8143 225.386 53.6444C225.131 53.4745 224.792 53.3895 224.452 53.3895C224.069 53.3895 223.73 53.4745 223.432 53.6444C223.135 53.8143 222.923 54.0691 222.753 54.3664C222.583 54.6638 222.498 55.046 222.498 55.4283C222.498 55.853 222.583 56.1928 222.753 56.5326C222.923 56.8299 223.177 57.0848 223.475 57.2547C223.772 57.4246 224.154 57.5095 224.537 57.5095C224.876 57.5095 225.174 57.467 225.429 57.3396C225.726 57.2122 225.938 57.0423 226.151 56.7874L226.703 57.3396C226.448 57.6369 226.151 57.8918 225.768 58.0617C225.344 58.2316 224.919 58.3165 224.494 58.3165Z" fill="#08090A"/>
</g>
</g>
<defs>
<clipPath id="clip0_627_21253">
<rect width="226.131" height="76.6229" fill="white" transform="translate(0.929688)"/>
</clipPath>
<clipPath id="clip1_627_21253">
<rect width="133.453" height="46.7213" fill="white" transform="translate(93.543 14.9492)"/>
</clipPath>
</defs>
</svg>
