<svg width="198" height="37" viewBox="0 0 198 37" fill="none" xmlns="http://www.w3.org/2000/svg">
<rect width="198" height="37" fill="#FDFDFF"/>
<g clip-path="url(#clip0_617_60609)">
<path d="M26.0961 31.051C26.3204 31.818 26.518 32.5944 26.7768 33.3488C27.0137 34.0386 27.0435 34.037 26.2875 33.9756C23.1865 33.722 20.3899 32.6558 17.954 30.7171C14.5033 27.9721 12.5614 24.3719 12.0736 19.9811C11.9623 18.9732 11.9623 18.9622 12.8751 18.5653C13.8633 18.1354 14.8734 17.7889 15.9651 18.1543C17.0348 18.5134 17.3281 19.0157 17.0944 20.1166C16.9658 20.7198 16.7305 21.3009 16.6129 21.9057C16.351 23.2664 16.994 24.5578 18.183 25.1546C19.4001 25.7657 20.8432 25.498 21.7607 24.457C22.4681 23.6538 22.6564 22.7136 22.4023 21.6757C22.225 20.9513 21.9913 20.2268 21.9348 19.4914C21.9097 19.1654 22.1842 18.7102 22.4603 18.4866C23.1442 17.9322 23.9802 17.9291 24.8131 18.0976C25.0499 18.1448 25.2883 18.2078 25.5126 18.2992C25.9785 18.4897 26.5965 18.5921 26.8411 18.9464C27.009 19.1874 26.6639 19.8 26.5243 20.2394C26.1949 21.2804 26.0349 22.3261 26.4553 23.3766C27.0121 24.7672 27.9611 25.2428 29.4072 24.8712C29.9138 24.7404 30.4079 24.5625 30.9146 24.4381C31.8321 24.2129 32.6336 24.4333 33.2124 25.2019C33.7567 25.9263 33.8085 26.7327 33.3708 27.528C32.9003 28.3816 32.127 28.6934 31.1937 28.5721C30.7546 28.5154 30.3201 28.3721 29.8997 28.2257C27.2709 27.3075 26.2263 29.1296 26.0945 31.0542L26.0961 31.051Z" fill="#1653FF"/>
<path d="M42.9992 18.9906C42.8282 21.9719 42.0486 24.6586 40.4174 27.0524C37.5988 31.1912 33.6728 33.4669 28.7038 33.952C28.2317 33.9977 27.9023 33.9095 27.7752 33.4134C27.5509 32.533 27.118 31.6464 27.1494 30.7755C27.2106 29.1045 27.9728 28.6021 29.4237 29.0147C29.8723 29.1423 30.3162 29.2935 30.7695 29.4022C32.0761 29.7171 33.3058 29.2337 34.0477 28.1312C34.7127 27.1438 34.6892 25.7138 33.9912 24.7421C33.2242 23.6743 31.9506 23.2208 30.6675 23.5688C30.2346 23.6853 29.8127 23.8413 29.3782 23.9499C28.0026 24.2948 27.358 23.9468 27.1227 22.2931C26.9627 21.1703 27.4505 20.1639 27.9666 19.2001C28.0089 19.1229 28.2662 19.1087 28.4042 19.1434C29.2308 19.3544 30.0417 19.641 30.8793 19.7907C31.2997 19.8663 31.778 19.7655 32.2015 19.6442C33.712 19.2111 34.3159 18.1591 33.9551 16.6299C33.8187 16.0472 33.6038 15.4834 33.4736 14.8991C33.2791 14.0313 33.6461 13.1431 34.363 12.7005C35.1362 12.2218 35.9283 12.2375 36.6906 12.7194C37.3996 13.1683 37.7384 14.0628 37.5407 14.9353C37.4341 15.4093 37.2914 15.8771 37.1423 16.3385C36.4428 18.4914 37.8294 19.6647 39.572 19.7607C40.4692 19.8096 41.3883 19.4662 42.2949 19.2804C42.5066 19.2363 42.7027 19.115 42.9992 18.9906Z" fill="#1653FF"/>
<path d="M12 17.9435C12.171 16.8347 12.2588 15.8489 12.48 14.8913C13.9371 8.55401 19.3751 3.75062 25.8374 3.05137C26.9761 2.92853 27.0342 2.95845 27.478 4.05615C27.8937 5.0877 28.1368 6.13972 27.6349 7.21221C27.2867 7.95713 26.8538 8.16502 26.046 7.98548C25.4813 7.85949 24.9324 7.66736 24.3708 7.52877C22.8055 7.14134 21.3938 7.80594 20.7382 9.22649C20.1264 10.551 20.5562 12.0818 21.8393 12.9936C22.5404 13.4928 23.3403 13.6456 24.1857 13.4314C24.8006 13.2755 25.4029 13.0487 26.0256 12.9448C27.1 12.7637 27.7165 13.2834 27.8686 14.3716C28.038 15.5906 27.6129 16.6615 27.0749 17.7025C27.0357 17.7797 26.7299 17.786 26.5856 17.7293C25.519 17.3056 24.4524 16.9135 23.2713 17.1529C21.3687 17.5387 20.6535 18.6616 21.1271 20.5515C21.2369 20.9861 21.3969 21.4098 21.5067 21.8445C21.7514 22.8193 21.4597 23.6587 20.7131 24.1863C20.07 24.6399 19.0395 24.6477 18.3823 24.2052C17.6419 23.706 17.3188 22.8256 17.5478 21.8759C17.6435 21.4759 17.7721 21.0822 17.8976 20.6901C18.6599 18.3199 17.1463 17.1938 15.2123 17.1135C14.3888 17.0789 13.5481 17.4458 12.7184 17.6458C12.5255 17.6915 12.3482 17.797 12.0016 17.9435H12Z" fill="#1653FF"/>
</g>
<path d="M68.5768 27L63.5828 11.468H67.0148L70.6668 23.414H69.3248L72.8888 11.468H75.5948L79.1588 23.414H77.8388L81.4688 11.468H84.8788L79.8848 27H77.1788L73.5928 15.054H74.8688L71.2828 27H68.5768ZM88.6398 27V16.308H92.0058V27H88.6398ZM90.3338 14.834C89.8058 14.834 89.3658 14.658 89.0138 14.306C88.6764 13.9393 88.5078 13.4993 88.5078 12.986C88.5078 12.458 88.6764 12.018 89.0138 11.666C89.3658 11.314 89.8058 11.138 90.3338 11.138C90.8618 11.138 91.2944 11.314 91.6318 11.666C91.9691 12.018 92.1378 12.458 92.1378 12.986C92.1378 13.4993 91.9691 13.9393 91.6318 14.306C91.2944 14.658 90.8618 14.834 90.3338 14.834ZM103.418 27L99.6781 21.456L103.396 16.308H107.158L102.67 22.094L102.78 20.708L107.378 27H103.418ZM96.5761 27V11.028H99.9421V27H96.5761ZM110.399 27V16.308H113.765V27H110.399ZM112.093 14.834C111.565 14.834 111.125 14.658 110.773 14.306C110.436 13.9393 110.267 13.4993 110.267 12.986C110.267 12.458 110.436 12.018 110.773 11.666C111.125 11.314 111.565 11.138 112.093 11.138C112.621 11.138 113.054 11.314 113.391 11.666C113.728 12.018 113.897 12.458 113.897 12.986C113.897 13.4993 113.728 13.9393 113.391 14.306C113.054 14.658 112.621 14.834 112.093 14.834ZM122.889 27.22C121.877 27.22 120.975 26.978 120.183 26.494C119.406 26.01 118.79 25.35 118.335 24.514C117.895 23.678 117.675 22.7247 117.675 21.654C117.675 20.5833 117.895 19.63 118.335 18.794C118.79 17.958 119.406 17.298 120.183 16.814C120.975 16.33 121.877 16.088 122.889 16.088C123.623 16.088 124.283 16.2273 124.869 16.506C125.471 16.7847 125.962 17.1733 126.343 17.672C126.739 18.156 126.959 18.7133 127.003 19.344V23.854C126.959 24.4847 126.747 25.0567 126.365 25.57C125.984 26.0687 125.493 26.472 124.891 26.78C124.29 27.0733 123.623 27.22 122.889 27.22ZM123.483 24.184C123.967 24.184 124.385 24.0813 124.737 23.876C125.089 23.656 125.368 23.3553 125.573 22.974C125.779 22.5927 125.881 22.1527 125.881 21.654C125.881 21.1553 125.779 20.7227 125.573 20.356C125.383 19.9747 125.104 19.674 124.737 19.454C124.385 19.234 123.975 19.124 123.505 19.124C123.036 19.124 122.618 19.234 122.251 19.454C121.899 19.674 121.613 19.9747 121.393 20.356C121.188 20.7373 121.085 21.17 121.085 21.654C121.085 22.138 121.188 22.5707 121.393 22.952C121.599 23.3333 121.885 23.634 122.251 23.854C122.618 24.074 123.029 24.184 123.483 24.184ZM129.049 27H125.749V24.118L126.255 21.522L125.683 18.926V11.028H129.049V27ZM133.619 27V16.308H136.985V27H133.619ZM135.313 14.834C134.785 14.834 134.345 14.658 133.993 14.306C133.656 13.9393 133.487 13.4993 133.487 12.986C133.487 12.458 133.656 12.018 133.993 11.666C134.345 11.314 134.785 11.138 135.313 11.138C135.841 11.138 136.274 11.314 136.611 11.666C136.949 12.018 137.117 12.458 137.117 12.986C137.117 13.4993 136.949 13.9393 136.611 14.306C136.274 14.658 135.841 14.834 135.313 14.834ZM143.074 27V11.886H146.44V27H143.074ZM140.654 19.168V16.308H148.86V19.168H140.654ZM157.476 27.242C156.376 27.242 155.379 27 154.484 26.516C153.604 26.0173 152.907 25.3427 152.394 24.492C151.881 23.6413 151.624 22.688 151.624 21.632C151.624 20.576 151.881 19.63 152.394 18.794C152.907 17.958 153.604 17.298 154.484 16.814C155.364 16.3153 156.361 16.066 157.476 16.066C158.591 16.066 159.588 16.308 160.468 16.792C161.348 17.276 162.045 17.9433 162.558 18.794C163.071 19.63 163.328 20.576 163.328 21.632C163.328 22.688 163.071 23.6413 162.558 24.492C162.045 25.3427 161.348 26.0173 160.468 26.516C159.588 27 158.591 27.242 157.476 27.242ZM157.476 24.184C157.96 24.184 158.385 24.0813 158.752 23.876C159.119 23.656 159.397 23.3553 159.588 22.974C159.793 22.578 159.896 22.1307 159.896 21.632C159.896 21.1333 159.793 20.7007 159.588 20.334C159.383 19.9527 159.097 19.6593 158.73 19.454C158.378 19.234 157.96 19.124 157.476 19.124C157.007 19.124 156.589 19.234 156.222 19.454C155.855 19.6593 155.569 19.9527 155.364 20.334C155.159 20.7153 155.056 21.1553 155.056 21.654C155.056 22.138 155.159 22.578 155.364 22.974C155.569 23.3553 155.855 23.656 156.222 23.876C156.589 24.0813 157.007 24.184 157.476 24.184ZM167.204 27V16.308H170.57V27H167.204ZM170.57 21.126L169.162 20.026C169.44 18.7793 169.91 17.8113 170.57 17.122C171.23 16.4327 172.146 16.088 173.32 16.088C173.833 16.088 174.28 16.1687 174.662 16.33C175.058 16.4767 175.402 16.7113 175.696 17.034L173.694 19.564C173.547 19.4027 173.364 19.278 173.144 19.19C172.924 19.102 172.674 19.058 172.396 19.058C171.838 19.058 171.391 19.234 171.054 19.586C170.731 19.9233 170.57 20.4367 170.57 21.126Z" fill="#1653FF"/>
<defs>
<clipPath id="clip0_617_60609">
<rect width="31" height="31" fill="white" transform="translate(12 3)"/>
</clipPath>
</defs>
</svg>
