<svg width="43" height="34" viewBox="0 0 43 34" fill="none" xmlns="http://www.w3.org/2000/svg">
<path d="M21.423 0C20.9384 0.0859589 20.4253 0.444651 19.9245 1.1216C19.4983 1.69772 19.0927 2.48792 18.7336 3.45224H24.0863C23.723 2.47992 23.3143 1.68386 22.8884 1.10604C22.3908 0.430784 21.8857 0.0785775 21.423 0ZM23.0955 0.153923C23.2361 0.303815 23.3724 0.468041 23.504 0.646534C24.0316 1.36248 24.4985 2.31158 24.9018 3.45224H28.6097C27.0792 1.74094 25.1798 0.567372 23.0955 0.153923ZM19.7302 0.157601C17.6527 0.574093 15.7597 1.74581 14.2334 3.45224H17.9176C18.3163 2.31906 18.7809 1.37581 19.3098 0.660822C19.4448 0.478274 19.5852 0.310442 19.7302 0.157601ZM16.974 0.321569C15.005 0.969365 13.1982 2.03723 11.6769 3.45224H13.2219C14.2916 2.12452 15.5625 1.05429 16.974 0.321569ZM25.9219 0.348732C27.3122 1.08064 28.5646 2.14113 29.621 3.45224H31.1722C29.662 2.05278 27.8718 0.994607 25.9219 0.348732ZM10.898 4.22369C9.75761 5.45777 8.83994 6.88265 8.18626 8.43423H10.5719C11.0747 6.88308 11.7784 5.46183 12.6432 4.22369H10.898ZM13.5958 4.22369C12.6726 5.43354 11.9167 6.85725 11.3785 8.43423H16.7721C16.9877 6.87138 17.292 5.45468 17.6664 4.22369H13.5958ZM18.4693 4.22369C18.0864 5.42934 17.772 6.85025 17.5483 8.43423H25.2853C25.0572 6.85137 24.7378 5.43025 24.3519 4.22369H18.4693ZM25.1555 4.22369C25.5328 5.45506 25.8417 6.87209 26.0616 8.43423H31.4645C30.9263 6.85723 30.1704 5.43357 29.2472 4.22369H25.1555ZM30.1998 4.22369C31.0646 5.46182 31.7682 6.8831 32.271 8.43423H34.6725C34.0115 6.88087 33.0856 5.45587 31.9366 4.22369H30.1998ZM7.88502 9.20568C7.3222 10.7722 7.03203 12.4246 7.02727 14.0903H9.69359C9.69359 12.3821 9.92191 10.7382 10.3416 9.20568H7.88502ZM11.1365 9.20568C10.6998 10.7251 10.4601 12.3696 10.4601 14.0903H16.4028C16.4028 12.3638 16.4987 10.7241 16.6748 9.20568H11.1365ZM17.4474 9.20568C17.2681 10.7168 17.1693 12.3592 17.1693 14.0903H25.6736C25.6736 12.3608 25.572 10.7181 25.3884 9.20568H17.4474ZM26.1609 9.20568C26.3411 10.7251 26.4402 12.3651 26.4402 14.0903H32.3829C32.3829 12.3696 32.1432 10.7251 31.7065 9.20568H26.1609ZM32.5014 9.20568C32.9211 10.7382 33.1494 12.3821 33.1494 14.0903H35.8159C35.8098 12.4244 35.5182 10.7719 34.954 9.20568H32.5014ZM0.324219 14.8618V16.2682H42.5188V14.8618H0.324219ZM1.76674 17.0395V31.6485H7.40174V17.0395H1.76674ZM12.9916 17.0395V31.6485H18.6266V17.0395H12.9916ZM24.2165 17.0395V31.6485H29.8514V17.0395H24.2165ZM35.4412 17.0395V31.6485H41.0763V17.0395H35.4412ZM0.324219 32.4198V33.8262H42.5188V32.4198H0.324219Z" fill="#006499"/>
</svg>
