<svg width="46" height="46" viewBox="0 0 46 46" fill="none" xmlns="http://www.w3.org/2000/svg">
<path d="M22.5905 25.0404C26.5779 25.0404 29.8447 21.841 29.8447 17.9237C29.8447 14.0064 26.5779 10.807 22.5905 10.807C18.6031 10.807 15.3363 14.0064 15.3363 17.9237C15.3363 21.841 18.6031 25.0404 22.5905 25.0404ZM22.5905 12.3737C25.7073 12.3737 28.253 14.8743 28.253 17.9237C28.253 20.9731 25.7073 23.4737 22.5905 23.4737C19.4737 23.4737 16.928 20.9731 16.928 17.9237C16.928 14.8743 19.4737 12.3737 22.5905 12.3737Z" fill="#190207" stroke="#190207" stroke-width="0.3"/>
<path d="M27.7459 26.322L27.7391 26.326L27.7327 26.3308C26.3066 27.3874 24.4976 27.9796 22.5908 27.9796C20.6847 27.9796 18.8753 27.3879 17.3836 26.2987C17.2173 26.1764 17.0182 26.143 16.8105 26.143H16.8004L16.7903 26.1443C12.2945 26.7558 8.91055 30.5538 8.91055 35.0013C8.91055 35.4621 9.26631 35.8163 9.70638 35.8163C10.1417 35.8163 10.5022 35.4669 10.5022 35.033C10.5022 31.4546 13.1307 28.3948 16.6792 27.7809C18.4063 28.948 20.4513 29.5463 22.5585 29.5463C24.6673 29.5463 26.7114 28.9161 28.4367 27.7807C31.9854 28.3944 34.6147 31.4854 34.6147 35.033C34.6147 35.4669 34.9753 35.8163 35.4105 35.8163C35.8458 35.8163 36.2064 35.4669 36.2064 35.033C36.2064 30.5868 32.8244 26.7897 28.3306 26.1766C28.1142 26.1359 27.913 26.2237 27.7459 26.322Z" fill="#190207" stroke="#190207" stroke-width="0.3"/>
</svg>
