<svg xmlns="http://www.w3.org/2000/svg" width="46" height="46" fill="none" viewBox="0 0 46 46">
  <path fill="#6E6F72" fill-opacity=".94" d="M22.854 24.091c3.908 0 7.104-3.135 7.104-6.966 0-3.832-3.196-6.967-7.104-6.967-3.907 0-7.104 3.135-7.104 6.967 0 3.831 3.197 6.966 7.104 6.966Zm0-12.666c3.197 0 5.813 2.565 5.813 5.7 0 3.135-2.616 5.7-5.813 5.7-3.197 0-5.812-2.565-5.812-5.7 0-3.135 2.615-5.7 5.812-5.7Z"/>
  <path stroke="#6E6F72" stroke-opacity=".94" stroke-width=".3" d="M22.854 24.241c3.988 0 7.254-3.199 7.254-7.116s-3.267-7.117-7.254-7.117c-3.987 0-7.254 3.2-7.254 7.117s3.267 7.116 7.254 7.116Zm0-12.666c3.117 0 5.663 2.5 5.663 5.55s-2.546 5.55-5.663 5.55c-3.117 0-5.662-2.5-5.662-5.55s2.545-5.55 5.662-5.55Z"/>
  <path fill="#6E6F72" fill-opacity=".94" d="M9.97 34.867a.642.642 0 0 0 .646-.633c0-3.673 2.712-6.808 6.361-7.41 1.712 1.172 3.746 1.773 5.845 1.773 2.1 0 4.134-.633 5.845-1.773 3.649.602 6.361 3.768 6.361 7.41 0 .349.291.633.646.633a.642.642 0 0 0 .646-.633c0-4.37-3.326-8.107-7.75-8.708-.161-.032-.323.032-.484.127-1.453 1.076-3.294 1.678-5.232 1.678a8.943 8.943 0 0 1-5.295-1.71c-.13-.095-.291-.127-.485-.127-4.424.602-7.75 4.338-7.75 8.709 0 .38.29.664.646.664Z"/>
  <path stroke="#6E6F72" stroke-opacity=".94" stroke-width=".3" d="m28.01 25.523-.007.004-.007.005c-1.426 1.057-3.235 1.649-5.142 1.649a8.793 8.793 0 0 1-5.207-1.681c-.166-.122-.365-.156-.573-.156h-.01l-.01.002c-4.496.61-7.88 4.409-7.88 8.857 0 .46.356.814.796.814a.792.792 0 0 0 .796-.783c0-3.578 2.628-6.638 6.177-7.252 1.727 1.167 3.772 1.765 5.88 1.765s4.152-.63 5.877-1.765c3.549.614 6.178 3.704 6.178 7.252 0 .434.36.783.796.783a.792.792 0 0 0 .796-.783c0-4.446-3.382-8.243-7.876-8.856-.216-.04-.417.047-.584.145Z"/>
</svg>
