<svg width="10" height="10" viewBox="0 0 10 10" fill="none" xmlns="http://www.w3.org/2000/svg">
<path d="M4.14062 10H1.17188C0.525703 10 0 9.4743 0 8.82812V5.85938C0 5.2132 0.525703 4.6875 1.17188 4.6875H4.14062C4.7868 4.6875 5.3125 5.2132 5.3125 5.85938V8.82812C5.3125 9.4743 4.7868 10 4.14062 10ZM1.17188 5.46875C0.956484 5.46875 0.78125 5.64398 0.78125 5.85938V8.82812C0.78125 9.04352 0.956484 9.21875 1.17188 9.21875H4.14062C4.35602 9.21875 4.53125 9.04352 4.53125 8.82812V5.85938C4.53125 5.64398 4.35602 5.46875 4.14062 5.46875H1.17188Z" fill="black"/>
<path d="M8.4375 8.59375H6.48438C6.26863 8.59375 6.09375 8.41887 6.09375 8.20312C6.09375 7.98738 6.26863 7.8125 6.48438 7.8125H8.4375C8.86828 7.8125 9.21875 7.46203 9.21875 7.03125V1.5625C9.21875 1.13172 8.86828 0.78125 8.4375 0.78125H2.96875C2.53797 0.78125 2.1875 1.13172 2.1875 1.5625V3.51562C2.1875 3.73137 2.01262 3.90625 1.79688 3.90625C1.58113 3.90625 1.40625 3.73137 1.40625 3.51562V1.5625C1.40625 0.700938 2.10719 0 2.96875 0H8.4375C9.29906 0 10 0.700938 10 1.5625V7.03125C10 7.89281 9.29906 8.59375 8.4375 8.59375Z" fill="black"/>
</svg>
