<svg width="29" height="28" viewBox="0 0 29 28" fill="none" xmlns="http://www.w3.org/2000/svg">
<path d="M19.1792 3.80396C14.9076 -0.314861 7.95516 -0.314861 3.68351 3.80396C-0.587212 7.92367 -0.587212 14.6265 3.68351 18.7462C7.48753 22.4132 13.4121 22.8061 17.681 19.9426C17.7708 20.3524 17.9764 20.7435 18.3069 21.0623L24.5278 27.0606C25.4344 27.9329 26.8993 27.9329 27.8012 27.0606C28.7069 26.1874 28.7069 24.7748 27.8012 23.9043L21.5804 17.9042C21.2516 17.5881 20.8451 17.389 20.4201 17.3024C23.3916 13.1854 22.9842 7.47366 19.1792 3.80396ZM17.2152 16.8524C14.026 19.9274 8.83579 19.9274 5.64756 16.8524C2.46026 13.7773 2.46026 8.77368 5.64756 5.69863C8.83579 2.62447 14.026 2.62447 17.2152 5.69863C20.4043 8.77368 20.4043 13.7773 17.2152 16.8524Z" fill="#6E6F72" fill-opacity="0.94"/>
</svg>
