<svg width="28" height="27" viewBox="0 0 28 27" fill="none" xmlns="http://www.w3.org/2000/svg">
<path d="M18.6988 3.08911C14.4271 -1.0297 7.47469 -1.0297 3.20304 3.08911C-1.06768 7.20882 -1.06768 13.9116 3.20304 18.0313C7.00706 21.6984 12.9316 22.0912 17.2005 19.2278C17.2903 19.6376 17.4959 20.0287 17.8265 20.3474L24.0474 26.3457C24.9539 27.2181 26.4189 27.2181 27.3208 26.3457C28.2264 25.4725 28.2264 24.06 27.3208 23.1894L21.0999 17.1893C20.7712 16.8733 20.3646 16.6742 19.9396 16.5876C22.9112 12.4705 22.5037 6.75882 18.6988 3.08911ZM16.7347 16.1375C13.5456 19.2126 8.35532 19.2126 5.16709 16.1375C1.97979 13.0625 1.97979 8.05884 5.16709 4.98379C8.35532 1.90963 13.5456 1.90963 16.7347 4.98379C19.9239 8.05884 19.9239 13.0625 16.7347 16.1375Z" fill="#6E6F72" fill-opacity="0.94"/>
</svg>
