<svg width="19" height="21" viewBox="0 0 19 21" fill="blue" xmlns="http://www.w3.org/2000/svg">
<path fill-rule="evenodd" clip-rule="evenodd" d="M15.8333 19.1686C14.9589 19.1686 14.25 18.4798 14.25 17.6301C14.25 17.3648 14.3191 17.1152 14.4408 16.8974C14.4451 16.8903 14.4494 16.8832 14.4536 16.876C14.4576 16.869 14.4615 16.8621 14.4653 16.8551C14.7399 16.3984 15.2498 16.0916 15.8333 16.0916C16.7078 16.0916 17.4167 16.7804 17.4167 17.6301C17.4167 18.4798 16.7078 19.1686 15.8333 19.1686ZM13.5491 15.4991C14.1254 14.9161 14.9357 14.5532 15.8333 14.5532C17.5822 14.5532 19 15.9308 19 17.6301C19 19.3294 17.5822 20.707 15.8333 20.707C14.0844 20.707 12.6667 19.3294 12.6667 17.6301C12.6667 17.3568 12.7033 17.0918 12.7722 16.8395L5.45088 12.8381C4.87463 13.4211 4.06426 13.784 3.16667 13.784C1.41776 13.784 0 12.4064 0 10.707C0 9.00769 1.41776 7.63011 3.16667 7.63011C4.06426 7.63011 4.87463 7.99298 5.45088 8.57597L12.7722 4.57451C12.7033 4.32224 12.6667 4.05726 12.6667 3.78395C12.6667 2.08462 14.0844 0.707031 15.8333 0.707031C17.5822 0.707031 19 2.08462 19 3.78395C19 5.48329 17.5822 6.86088 15.8333 6.86088C14.9357 6.86088 14.1254 6.49801 13.5491 5.91501L6.22784 9.91647C6.29666 10.1687 6.33333 10.4337 6.33333 10.707C6.33333 10.9803 6.29666 11.2453 6.22784 11.4976L13.5491 15.4991ZM4.5347 11.4821C4.53847 11.4751 4.54237 11.4681 4.54638 11.4612C4.55056 11.4539 4.55485 11.4468 4.55923 11.4398C4.6809 11.2219 4.75 10.9723 4.75 10.707C4.75 10.4417 4.6809 10.1921 4.55923 9.9743C4.55485 9.96726 4.55056 9.96012 4.54638 9.9529C4.54237 9.94596 4.53847 9.93899 4.5347 9.93199C4.26009 9.47535 3.75025 9.16857 3.16667 9.16857C2.29222 9.16857 1.58333 9.85736 1.58333 10.707C1.58333 11.5567 2.29222 12.2455 3.16667 12.2455C3.75025 12.2455 4.26009 11.9387 4.5347 11.4821ZM14.4408 4.51666C14.4451 4.52371 14.4494 4.53085 14.4536 4.53808C14.4576 4.54503 14.4615 4.55201 14.4653 4.55902C14.7399 5.01565 15.2498 5.32242 15.8333 5.32242C16.7078 5.32242 17.4167 4.63362 17.4167 3.78395C17.4167 2.93429 16.7078 2.24549 15.8333 2.24549C14.9589 2.24549 14.25 2.93429 14.25 3.78395C14.25 4.04923 14.3191 4.29882 14.4408 4.51666Z" fill="#190207"/>
</svg>
