<svg width="24" height="25" viewBox="0 0 24 25" fill="none" xmlns="http://www.w3.org/2000/svg">
<g clip-path="url(#clip0_617_60464)">
<path d="M16 2.45703V3.70703H21.25C21.4489 3.70703 21.6397 3.78605 21.7803 3.9267C21.921 4.06735 22 4.25812 22 4.45703C22 4.65594 21.921 4.84671 21.7803 4.98736C21.6397 5.12801 21.4489 5.20703 21.25 5.20703H2.75C2.55109 5.20703 2.36032 5.12801 2.21967 4.98736C2.07902 4.84671 2 4.65594 2 4.45703C2 4.25812 2.07902 4.06735 2.21967 3.9267C2.36032 3.78605 2.55109 3.70703 2.75 3.70703H8V2.45703C8 1.49103 8.784 0.707031 9.75 0.707031H14.25C15.216 0.707031 16 1.49103 16 2.45703ZM9.5 2.45703V3.70703H14.5V2.45703C14.5 2.39073 14.4737 2.32714 14.4268 2.28025C14.3799 2.23337 14.3163 2.20703 14.25 2.20703H9.75C9.6837 2.20703 9.62011 2.23337 9.57322 2.28025C9.52634 2.32714 9.5 2.39073 9.5 2.45703ZM4.997 6.88503C4.98845 6.78629 4.96041 6.69023 4.91452 6.60239C4.86862 6.51455 4.80576 6.43668 4.72959 6.37328C4.65341 6.30988 4.56542 6.2622 4.47071 6.23301C4.376 6.20381 4.27644 6.19368 4.17779 6.2032C4.07914 6.21271 3.98336 6.24169 3.89597 6.28844C3.80858 6.3352 3.73133 6.39881 3.66868 6.4756C3.60602 6.55239 3.55921 6.64084 3.53095 6.73583C3.50268 6.83083 3.49352 6.93048 3.504 7.02903L4.916 21.627C4.95823 22.0597 5.16001 22.4612 5.48203 22.7533C5.80405 23.0453 6.22325 23.2071 6.658 23.207H17.342C17.7769 23.2071 18.1962 23.0452 18.5183 22.7529C18.8403 22.4606 19.042 22.0589 19.084 21.626L20.497 7.02903C20.5161 6.83091 20.4557 6.63333 20.3291 6.47973C20.2025 6.32614 20.0201 6.22913 19.822 6.21003C19.6239 6.19094 19.4263 6.25132 19.2727 6.37791C19.1191 6.5045 19.0221 6.68691 19.003 6.88503L17.591 21.481C17.585 21.5429 17.5562 21.6004 17.5102 21.6422C17.4641 21.6839 17.4042 21.7071 17.342 21.707H6.658C6.59582 21.7071 6.53587 21.6839 6.48983 21.6422C6.44379 21.6004 6.41497 21.5429 6.409 21.481L4.997 6.88503Z" fill="#6E6F72" fill-opacity="0.94"/>
<path d="M9.20536 8.20882C9.30372 8.20301 9.40227 8.21663 9.49537 8.24892C9.58847 8.28121 9.6743 8.33152 9.74795 8.397C9.82159 8.46247 9.88161 8.54181 9.92458 8.63049C9.96754 8.71917 9.99261 8.81545 9.99835 8.91382L10.4984 17.4138C10.51 17.6126 10.4423 17.8079 10.3099 17.9567C10.1776 18.1055 9.99163 18.1957 9.79285 18.2073C9.59407 18.219 9.3988 18.1512 9.24999 18.0189C9.10118 17.8866 9.01102 17.7006 8.99935 17.5018L8.49935 9.00182C8.49354 8.90345 8.50716 8.8049 8.53945 8.7118C8.57174 8.6187 8.62206 8.53288 8.68753 8.45923C8.753 8.38559 8.83235 8.32557 8.92102 8.2826C9.0097 8.23963 9.10598 8.21456 9.20435 8.20882H9.20536ZM15.4984 9.00182C15.51 8.80304 15.4423 8.60777 15.3099 8.45896C15.1776 8.31015 14.9916 8.21999 14.7929 8.20832C14.5941 8.19665 14.3988 8.26443 14.25 8.39673C14.1012 8.52904 14.011 8.71504 13.9994 8.91382L13.4994 17.4138C13.4877 17.6125 13.5554 17.8076 13.6876 17.9563C13.8198 18.105 14.0057 18.1952 14.2044 18.2068C14.403 18.2185 14.5981 18.1508 14.7469 18.0186C14.8956 17.8863 14.9857 17.7005 14.9974 17.5018L15.4984 9.00182Z" fill="#6E6F72" fill-opacity="0.94"/>
</g>
<defs>
<clipPath id="clip0_617_60464">
<rect width="24" height="24" fill="white" transform="translate(0 0.707031)"/>
</clipPath>
</defs>
</svg>
