<svg width="74" height="74" viewBox="0 0 74 74" fill="none" xmlns="http://www.w3.org/2000/svg">
<circle cx="37" cy="37" r="37" fill="#FDFDFF"/>
<path d="M28.4023 19.0785C28.4023 14.0643 32.4691 10 37.4883 10C42.5075 10 46.5759 14.0643 46.5759 19.0785C46.5759 24.0922 42.5075 28.1562 37.4883 28.1562C32.4691 28.1562 28.4023 24.0922 28.4023 19.0785Z" fill="#990000"/>
<path d="M48.4831 24.543C51.88 27.5681 54.0182 31.9719 54.0182 36.8742C54.0182 45.3372 47.645 52.3141 39.4336 53.2768V33.5833L48.4831 24.543Z" fill="#339966"/>
<path d="M20.957 36.8742C20.957 31.9719 23.0952 27.5681 26.4905 24.543L35.54 33.5833V53.2768C27.3287 52.3141 20.957 45.3372 20.957 36.8742Z" fill="#339966"/>
<path d="M10 37.2799C10 29.2517 13.4488 22.0278 18.9465 17.0059L23.9704 22.0245C19.8862 25.7115 17.321 31.0453 17.321 36.9754C17.321 48.1045 26.3499 57.1242 37.4883 57.1242C48.6283 57.1242 57.6572 48.1045 57.6572 36.9754C57.6572 31.0453 55.092 25.7115 51.0078 22.0245L56.0317 17.0062C61.5303 22.0277 64.978 29.2518 64.978 37.2802C64.978 52.4473 52.6713 64.7437 37.4883 64.7437C22.3069 64.7437 10.0002 52.4473 10.0002 37.2802L10 37.2799Z" fill="#006699"/>
</svg>
