<svg width="28" height="29" viewBox="0 0 28 29" fill="none" xmlns="http://www.w3.org/2000/svg">
<rect y="0.390625" width="28" height="28" rx="4" fill="#495057"/>
<path d="M15.4062 20.0156H9.625V8.76562H14.9375C15.5639 8.76566 16.1771 8.94497 16.7048 9.28237C17.2325 9.61976 17.6526 10.1011 17.9155 10.6697C18.1784 11.2382 18.2731 11.87 18.1884 12.4906C18.1037 13.1112 17.8431 13.6946 17.4375 14.1719C17.9673 14.5956 18.3528 15.1731 18.5408 15.825C18.7289 16.4768 18.7102 17.1709 18.4875 17.8117C18.2647 18.4526 17.8488 19.0086 17.297 19.4033C16.7452 19.7979 16.0847 20.0119 15.4062 20.0156ZM11.5 18.1406H15.3937C15.5784 18.1406 15.7613 18.1043 15.9319 18.0336C16.1025 17.9629 16.2575 17.8593 16.3881 17.7287C16.5187 17.5982 16.6223 17.4431 16.693 17.2725C16.7636 17.1019 16.8 16.919 16.8 16.7344C16.8 16.5497 16.7636 16.3668 16.693 16.1962C16.6223 16.0256 16.5187 15.8706 16.3881 15.74C16.2575 15.6094 16.1025 15.5058 15.9319 15.4352C15.7613 15.3645 15.5784 15.3281 15.3937 15.3281H11.5V18.1406ZM11.5 13.4531H14.9375C15.1222 13.4531 15.305 13.4168 15.4756 13.3461C15.6463 13.2754 15.8013 13.1718 15.9319 13.0412C16.0625 12.9107 16.166 12.7556 16.2367 12.585C16.3074 12.4144 16.3438 12.2315 16.3438 12.0469C16.3438 11.8622 16.3074 11.6793 16.2367 11.5087C16.166 11.3381 16.0625 11.1831 15.9319 11.0525C15.8013 10.9219 15.6463 10.8183 15.4756 10.7477C15.305 10.677 15.1222 10.6406 14.9375 10.6406H11.5V13.4531Z" fill="#F8F9FA"/>
</svg>
