<svg width="46" height="45" viewBox="0 0 46 45" fill="none" xmlns="http://www.w3.org/2000/svg">
<path d="M22.7173 30C23.1647 30 23.543 29.8487 23.8523 29.5462C24.1616 29.2437 24.3159 28.8742 24.315 28.4375C24.315 28 24.1608 27.63 23.8523 27.3275C23.5439 27.025 23.1655 26.8742 22.7173 26.875C22.27 26.875 21.8921 27.0263 21.5836 27.3288C21.2752 27.6313 21.1205 28.0008 21.1197 28.4375C21.1197 28.875 21.2743 29.245 21.5836 29.5475C21.893 29.85 22.2709 30.0008 22.7173 30ZM21.567 25.1875H23.9316C23.9316 24.5 24.0117 23.9583 24.1718 23.5625C24.332 23.1667 24.7845 22.625 25.5292 21.9375C26.0831 21.3958 26.5198 20.88 26.8393 20.39C27.1588 19.9 27.3186 19.3117 27.3186 18.625C27.3186 17.4583 26.8819 16.5625 26.0085 15.9375C25.1351 15.3125 24.102 15 22.9091 15C21.6948 15 20.7094 15.3125 19.9528 15.9375C19.1961 16.5625 18.6691 17.3125 18.3717 18.1875L20.4806 19C20.5871 18.625 20.827 18.2188 21.2002 17.7813C21.5734 17.3438 22.143 17.125 22.9091 17.125C23.5907 17.125 24.102 17.3075 24.4428 17.6725C24.7836 18.0375 24.9541 18.4383 24.9541 18.875C24.9541 19.2917 24.8262 19.6825 24.5706 20.0475C24.315 20.4125 23.9955 20.7508 23.612 21.0625C22.6747 21.875 22.0996 22.4896 21.8866 22.9062C21.6735 23.3229 21.567 24.0833 21.567 25.1875ZM22.7812 35C21.0132 35 19.3516 34.6717 17.7966 34.015C16.2415 33.3583 14.8888 32.4679 13.7385 31.3438C12.5882 30.2188 11.6778 28.8958 11.0072 27.375C10.3366 25.8542 10.0009 24.2292 10 22.5C10 20.7708 10.3357 19.1458 11.0072 17.625C11.6786 16.1042 12.5891 14.7812 13.7385 13.6563C14.8888 12.5313 16.2415 11.6408 17.7966 10.985C19.3516 10.3292 21.0132 10.0008 22.7812 10C24.5493 10 26.2109 10.3283 27.7659 10.985C29.321 11.6417 30.6737 12.5321 31.824 13.6563C32.9743 14.7812 33.8852 16.1042 34.5566 17.625C35.2281 19.1458 35.5634 20.7708 35.5625 22.5C35.5625 24.2292 35.2268 25.8542 34.5553 27.375C33.8839 28.8958 32.9734 30.2188 31.824 31.3438C30.6737 32.4688 29.321 33.3596 27.7659 34.0162C26.2109 34.6729 24.5493 35.0008 22.7812 35ZM22.7812 32.5C25.6357 32.5 28.0535 31.5312 30.0346 29.5938C32.0157 27.6562 33.0062 25.2917 33.0062 22.5C33.0062 19.7083 32.0157 17.3437 30.0346 15.4062C28.0535 13.4687 25.6357 12.5 22.7812 12.5C19.9268 12.5 17.509 13.4687 15.5279 15.4062C13.5468 17.3437 12.5562 19.7083 12.5562 22.5C12.5562 25.2917 13.5468 27.6562 15.5279 29.5938C17.509 31.5312 19.9268 32.5 22.7812 32.5Z" fill="#6E6F72" fill-opacity="0.94"/>
</svg>
