<svg width="16" height="21" viewBox="0 0 16 21" fill="none" xmlns="http://www.w3.org/2000/svg">
<path fill-rule="evenodd" clip-rule="evenodd" d="M2 0.707031C1.46957 0.707031 0.960859 0.917745 0.585786 1.29282C0.210714 1.66789 0 2.1766 0 2.70703V18.707C0 19.2375 0.210714 19.7462 0.585786 20.1212C0.960859 20.4963 1.46957 20.707 2 20.707H14C14.5304 20.707 15.0391 20.4963 15.4142 20.1212C15.7893 19.7462 16 19.2375 16 18.707V5.12103C15.9999 4.59064 15.7891 4.08202 15.414 3.70703L13 1.29303C12.625 0.917932 12.1164 0.707145 11.586 0.707031H2ZM2 2.70703H11.586L14 5.12103V18.707H2V2.70703ZM12.238 9.50003C12.3335 9.40778 12.4097 9.29744 12.4621 9.17544C12.5145 9.05343 12.5421 8.92221 12.5433 8.78943C12.5444 8.65665 12.5191 8.52497 12.4688 8.40208C12.4185 8.27918 12.3443 8.16753 12.2504 8.07364C12.1565 7.97974 12.0449 7.90549 11.922 7.85521C11.7991 7.80493 11.6674 7.77963 11.5346 7.78078C11.4018 7.78193 11.2706 7.80952 11.1486 7.86193C11.0266 7.91434 10.9162 7.99052 10.824 8.08603L6.582 12.328L5.167 10.914C4.9784 10.7319 4.7258 10.6311 4.4636 10.6334C4.2014 10.6356 3.95059 10.7408 3.76518 10.9262C3.57977 11.1116 3.4746 11.3624 3.47233 11.6246C3.47005 11.8868 3.57084 12.1394 3.753 12.328L5.803 14.379C5.90515 14.4812 6.02644 14.5623 6.15993 14.6176C6.29342 14.6729 6.4365 14.7014 6.581 14.7014C6.7255 14.7014 6.86858 14.6729 7.00207 14.6176C7.13556 14.5623 7.25685 14.4812 7.359 14.379L12.238 9.50003Z" fill="#E3E7E9"/>
</svg>
