<svg width="29" height="27" viewBox="0 0 29 27" fill="none" xmlns="http://www.w3.org/2000/svg">
<path d="M19.023 3.08911C14.7513 -1.0297 7.79891 -1.0297 3.52726 3.08911C-0.743462 7.20882 -0.743462 13.9116 3.52726 18.0313C7.33128 21.6984 13.2558 22.0912 17.5247 19.2278C17.6145 19.6376 17.8201 20.0287 18.1507 20.3474L24.3716 26.3457C25.2781 27.2181 26.7431 27.2181 27.645 26.3457C28.5506 25.4725 28.5506 24.06 27.645 23.1894L21.4241 17.1893C21.0954 16.8733 20.6889 16.6742 20.2638 16.5876C23.2354 12.4705 22.8279 6.75882 19.023 3.08911ZM17.0589 16.1375C13.8698 19.2126 8.67954 19.2126 5.49131 16.1375C2.30401 13.0625 2.30401 8.05884 5.49131 4.98379C8.67954 1.90963 13.8698 1.90963 17.0589 4.98379C20.2481 8.05884 20.2481 13.0625 17.0589 16.1375Z" fill="#6E6F72" fill-opacity="0.94"/>
</svg>
