<svg width="16" height="22" viewBox="0 0 16 22" fill="white" xmlns="http://www.w3.org/2000/svg">
<path fill-rule="evenodd" clip-rule="evenodd" d="M10 19.4214L2 16.1404V5.6409L10 2.35982V19.4214ZM0.82 17.7888C0.577128 17.689 0.369667 17.5208 0.223748 17.3052C0.0778291 17.0897 -2.19495e-05 16.8364 4.64206e-09 16.5774V5.20386C-2.19495e-05 4.94483 0.0778291 4.69158 0.223748 4.47602C0.369667 4.26045 0.577128 4.09221 0.82 3.99248L9.23067 0.542102C9.53464 0.417412 9.86519 0.368535 10.193 0.39981C10.5207 0.431085 10.8356 0.541545 11.1096 0.721381C11.3836 0.901217 11.6082 1.14486 11.7635 1.43069C11.9189 1.71651 12.0001 2.03567 12 2.35982V3.01604H13.6667C14.9547 3.01604 16 4.04367 16 5.31279V16.4685C16 17.0776 15.7542 17.6618 15.3166 18.0925C14.879 18.5232 14.2855 18.7652 13.6667 18.7652H12V19.4214C12.0001 19.7456 11.9189 20.0647 11.7635 20.3506C11.6082 20.6364 11.3836 20.88 11.1096 21.0599C10.8356 21.2397 10.5207 21.3502 10.193 21.3814C9.86519 21.4127 9.53464 21.3638 9.23067 21.2391L0.82 17.7888ZM12 16.7966H13.6667C13.7551 16.7966 13.8399 16.762 13.9024 16.7005C13.9649 16.6389 14 16.5555 14 16.4685V5.31279C14 5.22577 13.9649 5.14232 13.9024 5.08078C13.8399 5.01925 13.7551 4.98468 13.6667 4.98468H12V16.7966Z" fill="#6E6F72" fill-opacity="0.94"/>
</svg>
