<svg width="56" height="55" viewBox="0 0 56 55" fill="none" xmlns="http://www.w3.org/2000/svg">
<path d="M18.4336 9.07852C18.4336 4.06433 22.5004 0 27.5196 0C32.5388 0 36.6072 4.06433 36.6072 9.07852C36.6072 14.0922 32.5388 18.1562 27.5196 18.1562C22.5004 18.1562 18.4336 14.0922 18.4336 9.07852Z" fill="#990000"/>
<path d="M38.5143 14.543C41.9113 17.5681 44.0494 21.9719 44.0494 26.8742C44.0494 35.3372 37.6762 42.3141 29.4648 43.2768V23.5833L38.5143 14.543Z" fill="#339966"/>
<path d="M10.9883 26.8742C10.9883 21.9719 13.1264 17.5681 16.5218 14.543L25.5713 23.5833V43.2768C17.3599 42.3141 10.9883 35.3372 10.9883 26.8742Z" fill="#339966"/>
<path d="M0.03125 27.2799C0.03125 19.2517 3.48009 12.0278 8.97771 7.00586L14.0017 12.0245C9.91742 15.7115 7.35227 21.0453 7.35227 26.9754C7.35227 38.1045 16.3811 47.1242 27.5195 47.1242C38.6596 47.1242 47.6884 38.1045 47.6884 26.9754C47.6884 21.0453 45.1233 15.7115 41.039 12.0245L46.063 7.00618C51.5616 12.0277 55.0093 19.2518 55.0093 27.2802C55.0093 42.4473 42.7025 54.7437 27.5195 54.7437C12.3381 54.7437 0.0314086 42.4473 0.0314086 27.2802L0.03125 27.2799Z" fill="#006699"/>
</svg>
