<svg width="46" height="46" viewBox="0 0 46 46" fill="none" xmlns="http://www.w3.org/2000/svg">
<path d="M20.5566 16.3105C20.5566 17.4151 21.4521 18.3105 22.5566 18.3105C23.6612 18.3105 24.5566 17.4151 24.5566 16.3105C24.5566 15.206 23.6612 14.3105 22.5566 14.3105C21.4521 14.3105 20.5566 15.206 20.5566 16.3105Z" fill="#190207"/>
<path d="M20.5566 23.3105C20.5566 24.4151 21.4521 25.3105 22.5566 25.3105C23.6612 25.3105 24.5566 24.4151 24.5566 23.3105C24.5566 22.206 23.6612 21.3105 22.5566 21.3105C21.4521 21.3105 20.5566 22.206 20.5566 23.3105Z" fill="#190207"/>
<path d="M20.5566 30.3105C20.5566 31.4151 21.4521 32.3105 22.5566 32.3105C23.6612 32.3105 24.5566 31.4151 24.5566 30.3105C24.5566 29.206 23.6612 28.3105 22.5566 28.3105C21.4521 28.3105 20.5566 29.206 20.5566 30.3105Z" fill="#190207"/>
</svg>
