<svg xmlns="http://www.w3.org/2000/svg" width="48" height="48" fill="none" viewBox="0 0 48 48">
  <path stroke="#190207" stroke-linecap="round" stroke-width="1.5" d="M44 22H4" opacity=".5"/>
  <path stroke="#190207" stroke-width="1.5" d="M4 13.9c0-1.766 0-2.648.14-3.384a8 8 0 0 1 6.374-6.376C11.252 4 12.136 4 13.9 4c.772 0 1.16 0 1.532.034a8 8 0 0 1 4.36 1.808c.288.238.56.51 1.108 1.058L22 8c1.632 1.632 2.448 2.448 3.424 2.99a7.999 7.999 0 0 0 1.696.704c1.076.306 2.23.306 4.536.306h.748c5.264 0 7.898 0 9.608 1.54.158.14.308.29.448.448C44 15.698 44 18.332 44 23.596V28c0 7.542 0 11.314-2.344 13.656C39.314 44 35.542 44 28 44h-8c-7.542 0-11.314 0-13.656-2.344C4 39.314 4 35.542 4 28V13.9Z"/>
</svg>
